<svg width="431" height="112" viewBox="0 0 431 112" fill="none" xmlns="http://www.w3.org/2000/svg">
<path d="M29.392 53H40.08C38.48 51.464 35.536 47.368 33.424 42.184L18.704 1.736H10.768C11.728 2.632 13.136 4.424 14.544 6.792L4.816 33.8C0.912 44.488 1.616 53.192 11.6 53.192C21.52 53.192 25.36 44.744 24.144 31.048L28.048 41.8C29.904 47.176 31.056 51.4 29.392 53ZM6.224 33.672L15.376 8.2C16.08 9.544 16.784 11.016 17.424 12.552L23.568 29.448L19.664 31.368L13.84 34.312C17.552 34.568 20.048 36.744 19.728 41.736C18.896 48.264 16.08 51.912 11.6 51.912C2.768 51.912 2.32 44.424 6.224 33.672ZM42.42 53H52.596C50.932 51.4 49.908 46.6 49.908 41.352V27.4C51.06 29.896 54.58 31.688 58.996 31.688C65.588 31.88 68.66 35.656 70.068 41.352C71.284 46.6 70.068 51.4 68.404 53H78.452C76.916 51.528 76.34 47.88 74.932 42.952C73.46 36.552 70.196 32.456 64.116 31.048C70.772 29.384 75.572 24.264 75.572 16.52C75.572 6.984 67.252 0.775997 57.204 0.775997C53.812 0.775997 52.404 1.736 49.396 1.736H42.42C44.084 3.336 45.108 8.136 45.108 13.384V41.352C45.108 46.6 44.084 51.4 42.42 53ZM49.908 19.336V13.32C49.908 8.136 50.292 2.056 56.5 2.056C61.364 2.056 68.34 5.128 69.62 14.6C70.964 24.328 66.548 30.408 58.996 30.408C55.284 30.408 49.908 28.232 49.908 19.336ZM93.6075 53H103.784C102.12 51.4 101.096 46.6 101.096 41.352V13.384C101.096 8.136 101.224 3.016 106.472 3.016H106.728C115.176 3.016 118.184 6.792 120.104 8.456L118.568 3.016L118.184 1.736H79.2075L78.8235 3.016L77.2875 8.456C79.2075 6.792 82.2155 3.016 90.6635 3.016H90.9195C96.1675 3.016 96.2955 8.136 96.2955 13.384V41.352C96.2955 46.6 95.2715 51.4 93.6075 53ZM122.233 53H132.409C130.745 51.4 129.72 46.6 129.72 41.352V13.384C129.72 8.136 130.745 3.336 132.409 1.736H122.233C123.897 3.336 124.921 8.136 124.921 13.384V41.352C124.921 46.6 123.897 51.4 122.233 53ZM151.849 54.024C161.321 54.024 169.321 48.648 169.321 39.688C169.321 19.848 143.145 25.672 143.145 9.736C143.145 4.936 148.009 2.056 152.617 2.056C158.633 2.056 161.897 5.512 162.537 10.504L167.017 4.872C162.473 4.872 159.913 0.775997 152.297 0.775997C144.809 0.775997 138.217 4.872 138.217 11.656C138.217 29.512 164.201 25.672 164.201 40.52C164.201 48.136 158.441 52.744 152.745 52.744C145.641 52.744 140.777 46.6 140.777 37.832L135.593 44.424C137.513 50.504 143.337 54.024 151.849 54.024ZM203.263 53H213.951C212.351 51.464 209.407 47.368 207.295 42.184L192.575 1.736H184.639C185.599 2.632 187.007 4.424 188.415 6.792L175.871 41.8C173.695 47.496 170.687 51.4 169.023 53H175.807C174.335 51.592 175.167 47.944 176.639 43.272L189.247 8.2C189.951 9.544 190.655 11.016 191.295 12.552L201.919 41.8C203.775 47.176 204.927 51.4 203.263 53ZM248.072 53H249.352V13.384C249.352 8.136 250.376 3.336 252.04 1.736H245.384C247.048 3.336 248.072 8.136 248.072 13.384V43.464L229.768 12.936C226.696 7.752 224.84 3.528 225.736 1.736H214.6C215.944 2.312 217.608 3.912 219.272 6.024V41.352C219.272 46.6 218.248 51.4 216.584 53H223.24C221.576 51.4 220.552 46.6 220.552 41.352V7.688C221.704 9.288 222.856 11.08 224.008 12.936L248.072 53ZM286.7 53H297.388C295.788 51.464 292.844 47.368 290.732 42.184L276.012 1.736H268.076C269.036 2.632 270.444 4.424 271.852 6.792L259.308 41.8C257.132 47.496 254.124 51.4 252.46 53H259.244C257.772 51.592 258.604 47.944 260.076 43.272L272.684 8.2C273.388 9.544 274.092 11.016 274.732 12.552L285.356 41.8C287.212 47.176 288.364 51.4 286.7 53ZM299.733 53H331.349L331.733 51.72L333.269 46.28C331.797 47.944 328.341 51.72 319.893 51.72H312.661C307.349 51.72 307.22 46.6 307.22 41.352V13.384C307.22 8.136 308.245 3.336 309.909 1.736H299.733C301.397 3.336 302.421 8.136 302.421 13.384V41.352C302.421 46.6 301.397 51.4 299.733 53ZM24.016 111.024C30.48 111.024 36.624 108.016 40.528 101.808L39.504 101.04C35.216 106.736 30.864 108.016 26.256 108.016C19.216 108.016 10.448 103.856 8.848 84.336C7.248 64.88 14.736 59.504 21.776 59.504C25.424 59.504 29.776 62.384 31.312 68.336L36.24 62.064C32.72 59.184 28.432 57.776 24.016 57.776C13.072 57.776 3.28 66.416 3.28 84.336C3.28 102.384 13.072 111.024 24.016 111.024ZM63.0785 111.024C74.0225 111.024 83.9425 102.384 83.9425 84.336C83.9425 66.416 74.0225 57.776 63.0785 57.776C52.1345 57.776 42.3425 66.416 42.3425 84.336C42.3425 102.384 52.1345 111.024 63.0785 111.024ZM47.9105 84.336C46.3105 64.88 53.7985 59.504 60.8385 59.504C67.9425 59.504 76.7745 64.88 78.3745 84.336C79.9745 103.856 72.4225 109.296 65.3185 109.296C58.2785 109.296 49.5105 103.856 47.9105 84.336ZM118.447 110H119.727V70.384C119.727 65.136 120.751 60.336 122.415 58.736H115.759C117.423 60.336 118.447 65.136 118.447 70.384V100.464L100.143 69.936C97.071 64.752 95.215 60.528 96.111 58.736H84.975C86.319 59.312 87.983 60.912 89.647 63.024V98.352C89.647 103.6 88.623 108.4 86.959 110H93.615C91.951 108.4 90.927 103.6 90.927 98.352V64.688C92.079 66.288 93.231 68.08 94.383 69.936L118.447 110ZM144.094 110H152.03C151.07 109.104 149.662 107.312 148.254 104.944L160.798 69.936C162.974 64.24 165.982 60.336 167.646 58.736H160.862C162.334 60.144 161.502 63.792 160.03 68.464L147.422 103.536C146.718 102.192 146.014 100.72 145.374 99.184L134.75 69.936C132.894 64.56 131.742 60.336 133.406 58.736H122.718C124.318 60.272 127.262 64.368 129.374 69.552L144.094 110ZM168.733 110H199.708L200.093 108.72L201.629 103.28C200.157 104.944 196.701 108.72 188.253 108.72H181.661C176.349 108.72 176.22 103.6 176.22 98.352V89.84C176.22 83.376 178.781 81.392 184.029 81.392H186.141C191.389 81.392 196.189 83.12 197.789 84.784V76.72C196.189 78.384 191.389 80.112 186.141 80.112H184.029C180.189 80.112 177.629 81.072 176.22 83.568V70.384C176.22 65.136 176.349 60.016 181.597 60.016H188.701C196.445 60.016 198.749 62.064 200.349 63.728V58.736H168.733C170.397 60.336 171.421 65.136 171.421 70.384V98.352C171.421 103.6 170.397 108.4 168.733 110ZM204.858 110H215.034C213.37 108.4 212.345 103.6 212.345 98.352V84.4C213.498 86.896 217.018 88.688 221.434 88.688C228.026 88.88 231.098 92.656 232.506 98.352C233.722 103.6 232.506 108.4 230.842 110H240.89C239.354 108.528 238.778 104.88 237.37 99.952C235.898 93.552 232.634 89.456 226.554 88.048C233.21 86.384 238.01 81.264 238.01 73.52C238.01 63.984 229.69 57.776 219.642 57.776C216.25 57.776 214.842 58.736 211.834 58.736H204.858C206.522 60.336 207.546 65.136 207.546 70.384V98.352C207.546 103.6 206.522 108.4 204.858 110ZM212.345 76.336V70.32C212.345 65.136 212.73 59.056 218.938 59.056C223.802 59.056 230.778 62.128 232.058 71.6C233.402 81.328 228.986 87.408 221.434 87.408C217.722 87.408 212.345 85.232 212.345 76.336ZM264.095 111.024C271.583 111.024 278.943 108.592 279.199 97.584V82.608H266.463C271.711 85.296 274.271 89.008 274.271 94.256V96.944C274.271 107.504 270.559 109.68 265.631 109.68C258.591 109.68 249.823 103.856 248.223 84.336C246.623 64.88 254.111 59.504 261.151 59.504C265.823 59.504 272.159 62.64 273.183 71.216L278.303 64.752C274.399 60.08 269.023 57.776 263.391 57.776C252.447 57.776 242.655 66.416 242.655 84.336C242.655 102.384 252.447 111.024 264.095 111.024ZM283.045 110H314.021L314.405 108.72L315.941 103.28C314.469 104.944 311.013 108.72 302.565 108.72H295.973C290.661 108.72 290.533 103.6 290.533 98.352V89.84C290.533 83.376 293.093 81.392 298.341 81.392H300.453C305.701 81.392 310.501 83.12 312.101 84.784V76.72C310.501 78.384 305.701 80.112 300.453 80.112H298.341C294.501 80.112 291.941 81.072 290.533 83.568V70.384C290.533 65.136 290.661 60.016 295.909 60.016H303.013C310.757 60.016 313.061 62.064 314.661 63.728V58.736H283.045C284.709 60.336 285.733 65.136 285.733 70.384V98.352C285.733 103.6 284.709 108.4 283.045 110ZM352.322 110H353.602V70.384C353.602 65.136 354.626 60.336 356.29 58.736H349.634C351.298 60.336 352.322 65.136 352.322 70.384V100.464L334.018 69.936C330.946 64.752 329.09 60.528 329.986 58.736H318.85C320.194 59.312 321.858 60.912 323.522 63.024V98.352C323.522 103.6 322.498 108.4 320.834 110H327.49C325.826 108.4 324.802 103.6 324.802 98.352V64.688C325.954 66.288 327.106 68.08 328.258 69.936L352.322 110ZM379.204 111.024C385.668 111.024 391.812 108.016 395.716 101.808L394.692 101.04C390.404 106.736 386.052 108.016 381.444 108.016C374.404 108.016 365.635 103.856 364.036 84.336C362.436 64.88 369.924 59.504 376.964 59.504C380.612 59.504 384.964 62.384 386.5 68.336L391.428 62.064C387.908 59.184 383.62 57.776 379.204 57.776C368.26 57.776 358.468 66.416 358.468 84.336C358.468 102.384 368.26 111.024 379.204 111.024ZM397.858 110H428.833L429.218 108.72L430.754 103.28C429.282 104.944 425.826 108.72 417.378 108.72H410.786C405.474 108.72 405.345 103.6 405.345 98.352V89.84C405.345 83.376 407.906 81.392 413.154 81.392H415.266C420.514 81.392 425.314 83.12 426.914 84.784V76.72C425.314 78.384 420.514 80.112 415.266 80.112H413.154C409.314 80.112 406.754 81.072 405.345 83.568V70.384C405.345 65.136 405.474 60.016 410.722 60.016H417.826C425.57 60.016 427.874 62.064 429.474 63.728V58.736H397.858C399.522 60.336 400.546 65.136 400.546 70.384V98.352C400.546 103.6 399.522 108.4 397.858 110Z" fill="url(#paint0_linear_1_419)"/>
<defs>
<linearGradient id="paint0_linear_1_419" x1="217.5" y1="-1" x2="217.5" y2="113" gradientUnits="userSpaceOnUse">
<stop stop-color="#CE2471"/>
<stop offset="1" stop-color="#EBCC6E"/>
</linearGradient>
</defs>
</svg>
