<svg width="431" height="112" viewBox="0 0 431 112" fill="none" xmlns="http://www.w3.org/2000/svg">
<path d="M29.392 53C31.056 51.4 29.904 47.176 28.048 41.8L24.144 31.048C25.36 44.744 21.52 53.192 11.6 53.192C1.616 53.192 0.912 44.488 4.816 33.8L14.544 6.792C13.136 4.424 11.728 2.632 10.768 1.736H18.704L33.424 42.184C35.536 47.368 38.48 51.464 40.08 53H29.392ZM6.224 33.672C2.32 44.424 2.768 51.912 11.6 51.912C16.08 51.912 18.896 48.264 19.728 41.736C20.048 36.744 17.552 34.568 13.84 34.312L19.664 31.368L23.568 29.448L17.424 12.552C16.784 11.016 16.08 9.544 15.376 8.2L6.224 33.672ZM42.42 53C44.084 51.4 45.108 46.6 45.108 41.352V13.384C45.108 8.136 44.084 3.336 42.42 1.736H49.396C52.404 1.736 53.812 0.775997 57.204 0.775997C67.252 0.775997 75.572 6.984 75.572 16.52C75.572 24.264 70.772 29.384 64.116 31.048C70.196 32.456 73.46 36.552 74.932 42.952C76.34 47.88 76.916 51.528 78.452 53H68.404C70.068 51.4 71.284 46.6 70.068 41.352C68.66 35.656 65.588 31.88 58.996 31.688C54.58 31.688 51.06 29.896 49.908 27.4V41.352C49.908 46.6 50.932 51.4 52.596 53H42.42ZM49.908 19.336C49.908 28.232 55.284 30.408 58.996 30.408C66.548 30.408 70.964 24.328 69.62 14.6C68.34 5.128 61.364 2.056 56.5 2.056C50.292 2.056 49.908 8.136 49.908 13.32V19.336ZM93.6075 53C95.2715 51.4 96.2955 46.6 96.2955 41.352V13.384C96.2955 8.136 96.1675 3.016 90.9195 3.016H90.6635C82.2155 3.016 79.2075 6.792 77.2875 8.456L78.8235 3.016L79.2075 1.736H118.184L118.568 3.016L120.104 8.456C118.184 6.792 115.176 3.016 106.728 3.016H106.472C101.224 3.016 101.096 8.136 101.096 13.384V41.352C101.096 46.6 102.12 51.4 103.784 53H93.6075ZM122.233 53C123.897 51.4 124.921 46.6 124.921 41.352V13.384C124.921 8.136 123.897 3.336 122.233 1.736H132.409C130.745 3.336 129.72 8.136 129.72 13.384V41.352C129.72 46.6 130.745 51.4 132.409 53H122.233ZM151.849 54.024C143.337 54.024 137.513 50.504 135.593 44.424L140.777 37.832C140.777 46.6 145.641 52.744 152.745 52.744C158.441 52.744 164.201 48.136 164.201 40.52C164.201 25.672 138.217 29.512 138.217 11.656C138.217 4.872 144.809 0.775997 152.297 0.775997C159.913 0.775997 162.473 4.872 167.017 4.872L162.537 10.504C161.897 5.512 158.633 2.056 152.617 2.056C148.009 2.056 143.145 4.936 143.145 9.736C143.145 25.672 169.321 19.848 169.321 39.688C169.321 48.648 161.321 54.024 151.849 54.024ZM203.263 53C204.927 51.4 203.775 47.176 201.919 41.8L191.295 12.552C190.655 11.016 189.951 9.544 189.247 8.2L176.639 43.272C175.167 47.944 174.335 51.592 175.807 53H169.023C170.687 51.4 173.695 47.496 175.871 41.8L188.415 6.792C187.007 4.424 185.599 2.632 184.639 1.736H192.575L207.295 42.184C209.407 47.368 212.351 51.464 213.951 53H203.263ZM248.072 53L224.008 12.936C222.856 11.08 221.704 9.288 220.552 7.688V41.352C220.552 46.6 221.576 51.4 223.24 53H216.584C218.248 51.4 219.272 46.6 219.272 41.352V6.024C217.608 3.912 215.944 2.312 214.6 1.736H225.736C224.84 3.528 226.696 7.752 229.768 12.936L248.072 43.464V13.384C248.072 8.136 247.048 3.336 245.384 1.736H252.04C250.376 3.336 249.352 8.136 249.352 13.384V53H248.072ZM286.7 53C288.364 51.4 287.212 47.176 285.356 41.8L274.732 12.552C274.092 11.016 273.388 9.544 272.684 8.2L260.076 43.272C258.604 47.944 257.772 51.592 259.244 53H252.46C254.124 51.4 257.132 47.496 259.308 41.8L271.852 6.792C270.444 4.424 269.036 2.632 268.076 1.736H276.012L290.732 42.184C292.844 47.368 295.788 51.464 297.388 53H286.7ZM299.733 53C301.397 51.4 302.421 46.6 302.421 41.352V13.384C302.421 8.136 301.397 3.336 299.733 1.736H309.909C308.245 3.336 307.22 8.136 307.22 13.384V41.352C307.22 46.6 307.349 51.72 312.661 51.72H319.893C328.341 51.72 331.797 47.944 333.269 46.28L331.733 51.72L331.349 53H299.733ZM24.016 111.024C13.072 111.024 3.28 102.384 3.28 84.336C3.28 66.416 13.072 57.776 24.016 57.776C28.432 57.776 32.72 59.184 36.24 62.064L31.312 68.336C29.776 62.384 25.424 59.504 21.776 59.504C14.736 59.504 7.248 64.88 8.848 84.336C10.448 103.856 19.216 108.016 26.256 108.016C30.864 108.016 35.216 106.736 39.504 101.04L40.528 101.808C36.624 108.016 30.48 111.024 24.016 111.024ZM63.0785 111.024C52.1345 111.024 42.3425 102.384 42.3425 84.336C42.3425 66.416 52.1345 57.776 63.0785 57.776C74.0225 57.776 83.9425 66.416 83.9425 84.336C83.9425 102.384 74.0225 111.024 63.0785 111.024ZM47.9105 84.336C49.5105 103.856 58.2785 109.296 65.3185 109.296C72.4225 109.296 79.9745 103.856 78.3745 84.336C76.7745 64.88 67.9425 59.504 60.8385 59.504C53.7985 59.504 46.3105 64.88 47.9105 84.336ZM118.447 110L94.383 69.936C93.231 68.08 92.079 66.288 90.927 64.688V98.352C90.927 103.6 91.951 108.4 93.615 110H86.959C88.623 108.4 89.647 103.6 89.647 98.352V63.024C87.983 60.912 86.319 59.312 84.975 58.736H96.111C95.215 60.528 97.071 64.752 100.143 69.936L118.447 100.464V70.384C118.447 65.136 117.423 60.336 115.759 58.736H122.415C120.751 60.336 119.727 65.136 119.727 70.384V110H118.447ZM144.094 110L129.374 69.552C127.262 64.368 124.318 60.272 122.718 58.736H133.406C131.742 60.336 132.894 64.56 134.75 69.936L145.374 99.184C146.014 100.72 146.718 102.192 147.422 103.536L160.03 68.464C161.502 63.792 162.334 60.144 160.862 58.736H167.646C165.982 60.336 162.974 64.24 160.798 69.936L148.254 104.944C149.662 107.312 151.07 109.104 152.03 110H144.094ZM168.733 110C170.397 108.4 171.421 103.6 171.421 98.352V70.384C171.421 65.136 170.397 60.336 168.733 58.736H200.349V63.728C198.749 62.064 196.445 60.016 188.701 60.016H181.597C176.349 60.016 176.22 65.136 176.22 70.384V83.568C177.629 81.072 180.189 80.112 184.029 80.112H186.141C191.389 80.112 196.189 78.384 197.789 76.72V84.784C196.189 83.12 191.389 81.392 186.141 81.392H184.029C178.781 81.392 176.22 83.376 176.22 89.84V98.352C176.22 103.6 176.349 108.72 181.661 108.72H188.253C196.701 108.72 200.157 104.944 201.629 103.28L200.093 108.72L199.708 110H168.733ZM204.858 110C206.522 108.4 207.546 103.6 207.546 98.352V70.384C207.546 65.136 206.522 60.336 204.858 58.736H211.834C214.842 58.736 216.25 57.776 219.642 57.776C229.69 57.776 238.01 63.984 238.01 73.52C238.01 81.264 233.21 86.384 226.554 88.048C232.634 89.456 235.898 93.552 237.37 99.952C238.778 104.88 239.354 108.528 240.89 110H230.842C232.506 108.4 233.722 103.6 232.506 98.352C231.098 92.656 228.026 88.88 221.434 88.688C217.018 88.688 213.498 86.896 212.345 84.4V98.352C212.345 103.6 213.37 108.4 215.034 110H204.858ZM212.345 76.336C212.345 85.232 217.722 87.408 221.434 87.408C228.986 87.408 233.402 81.328 232.058 71.6C230.778 62.128 223.802 59.056 218.938 59.056C212.73 59.056 212.345 65.136 212.345 70.32V76.336ZM264.095 111.024C252.447 111.024 242.655 102.384 242.655 84.336C242.655 66.416 252.447 57.776 263.391 57.776C269.023 57.776 274.399 60.08 278.303 64.752L273.183 71.216C272.159 62.64 265.823 59.504 261.151 59.504C254.111 59.504 246.623 64.88 248.223 84.336C249.823 103.856 258.591 109.68 265.631 109.68C270.559 109.68 274.271 107.504 274.271 96.944V94.256C274.271 89.008 271.711 85.296 266.463 82.608H279.199V97.584C278.943 108.592 271.583 111.024 264.095 111.024ZM283.045 110C284.709 108.4 285.733 103.6 285.733 98.352V70.384C285.733 65.136 284.709 60.336 283.045 58.736H314.661V63.728C313.061 62.064 310.757 60.016 303.013 60.016H295.909C290.661 60.016 290.533 65.136 290.533 70.384V83.568C291.941 81.072 294.501 80.112 298.341 80.112H300.453C305.701 80.112 310.501 78.384 312.101 76.72V84.784C310.501 83.12 305.701 81.392 300.453 81.392H298.341C293.093 81.392 290.533 83.376 290.533 89.84V98.352C290.533 103.6 290.661 108.72 295.973 108.72H302.565C311.013 108.72 314.469 104.944 315.941 103.28L314.405 108.72L314.021 110H283.045ZM352.322 110L328.258 69.936C327.106 68.08 325.954 66.288 324.802 64.688V98.352C324.802 103.6 325.826 108.4 327.49 110H320.834C322.498 108.4 323.522 103.6 323.522 98.352V63.024C321.858 60.912 320.194 59.312 318.85 58.736H329.986C329.09 60.528 330.946 64.752 334.018 69.936L352.322 100.464V70.384C352.322 65.136 351.298 60.336 349.634 58.736H356.29C354.626 60.336 353.602 65.136 353.602 70.384V110H352.322ZM379.204 111.024C368.26 111.024 358.468 102.384 358.468 84.336C358.468 66.416 368.26 57.776 379.204 57.776C383.62 57.776 387.908 59.184 391.428 62.064L386.5 68.336C384.964 62.384 380.612 59.504 376.964 59.504C369.924 59.504 362.436 64.88 364.036 84.336C365.635 103.856 374.404 108.016 381.444 108.016C386.052 108.016 390.404 106.736 394.692 101.04L395.716 101.808C391.812 108.016 385.668 111.024 379.204 111.024ZM397.858 110C399.522 108.4 400.546 103.6 400.546 98.352V70.384C400.546 65.136 399.522 60.336 397.858 58.736H429.474V63.728C427.874 62.064 425.57 60.016 417.826 60.016H410.722C405.474 60.016 405.345 65.136 405.345 70.384V83.568C406.754 81.072 409.314 80.112 413.154 80.112H415.266C420.514 80.112 425.314 78.384 426.914 76.72V84.784C425.314 83.12 420.514 81.392 415.266 81.392H413.154C407.906 81.392 405.345 83.376 405.345 89.84V98.352C405.345 103.6 405.474 108.72 410.786 108.72H417.378C425.826 108.72 429.282 104.944 430.754 103.28L429.218 108.72L428.833 110H397.858Z" fill="white"/>
</svg>
