<svg width="1237" height="306" viewBox="0 0 1237 306" fill="none" xmlns="http://www.w3.org/2000/svg">
<path d="M82.752 151H113.48C108.88 146.584 100.416 134.808 94.344 119.904L52.024 3.61599H29.208C31.968 6.19199 36.016 11.344 40.064 18.152L12.096 95.8C0.872 126.528 2.896 151.552 31.6 151.552C60.12 151.552 71.16 127.264 67.664 87.888L78.888 118.8C84.224 134.256 87.536 146.4 82.752 151ZM16.144 95.432L42.456 22.2C44.48 26.064 46.504 30.296 48.344 34.712L66.008 83.288L54.784 88.808L38.04 97.272C48.712 98.008 55.888 104.264 54.968 118.616C52.576 137.384 44.48 147.872 31.6 147.872C6.208 147.872 4.92 126.344 16.144 95.432ZM120.208 151H149.464C144.68 146.4 141.735 132.6 141.735 117.512V77.4C145.048 84.576 155.168 89.728 167.864 89.728C186.816 90.28 195.648 101.136 199.696 117.512C203.192 132.6 199.696 146.4 194.912 151H223.8C219.384 146.768 217.728 136.28 213.68 122.112C209.448 103.712 200.064 91.936 182.584 87.888C201.72 83.104 215.52 68.384 215.52 46.12C215.52 18.704 191.6 0.855992 162.712 0.855992C152.96 0.855992 148.912 3.61599 140.264 3.61599H120.208C124.992 8.216 127.936 22.016 127.936 37.104V117.512C127.936 132.6 124.992 146.4 120.208 151ZM141.735 54.216V36.92C141.735 22.016 142.84 4.53599 160.688 4.53599C174.672 4.53599 194.728 13.368 198.408 40.6C202.272 68.568 189.576 86.048 167.864 86.048C157.192 86.048 141.735 79.792 141.735 54.216ZM267.372 151H296.628C291.844 146.4 288.9 132.6 288.9 117.512V37.104C288.9 22.016 289.268 7.296 304.356 7.296H305.092C329.38 7.296 338.028 18.152 343.548 22.936L339.132 7.296L338.028 3.61599H225.972L224.868 7.296L220.452 22.936C225.972 18.152 234.62 7.296 258.908 7.296H259.644C274.732 7.296 275.1 22.016 275.1 37.104V117.512C275.1 132.6 272.156 146.4 267.372 151ZM349.668 151H378.924C374.14 146.4 371.196 132.6 371.196 117.512V37.104C371.196 22.016 374.14 8.216 378.924 3.61599H349.668C354.452 8.216 357.396 22.016 357.396 37.104V117.512C357.396 132.6 354.452 146.4 349.668 151ZM434.814 153.944C462.046 153.944 485.046 138.488 485.046 112.728C485.046 55.688 409.79 72.432 409.79 26.616C409.79 12.816 423.774 4.53599 437.022 4.53599C454.318 4.53599 463.702 14.472 465.542 28.824L478.422 12.632C465.358 12.632 457.998 0.855992 436.102 0.855992C414.574 0.855992 395.622 12.632 395.622 32.136C395.622 83.472 470.326 72.432 470.326 115.12C470.326 137.016 453.766 150.264 437.39 150.264C416.966 150.264 402.982 132.6 402.982 107.392L388.078 126.344C393.598 143.824 410.342 153.944 434.814 153.944ZM582.63 151H613.358C608.758 146.584 600.294 134.808 594.222 119.904L551.902 3.61599H529.086C531.846 6.19199 535.894 11.344 539.942 18.152L503.878 118.8C497.622 135.176 488.974 146.4 484.19 151H503.694C499.462 146.952 501.854 136.464 506.086 123.032L542.334 22.2C544.358 26.064 546.382 30.296 548.222 34.712L578.766 118.8C584.102 134.256 587.414 146.4 582.63 151ZM711.457 151H715.137V37.104C715.137 22.016 718.081 8.216 722.865 3.61599H703.729C708.513 8.216 711.457 22.016 711.457 37.104V123.584L658.833 35.816C650.001 20.912 644.665 8.76799 647.241 3.61599H615.225C619.089 5.27199 623.873 9.872 628.657 15.944V117.512C628.657 132.6 625.713 146.4 620.929 151H640.065C635.281 146.4 632.337 132.6 632.337 117.512V20.728C635.649 25.328 638.961 30.48 642.273 35.816L711.457 151ZM822.513 151H853.241C848.641 146.584 840.177 134.808 834.105 119.904L791.785 3.61599H768.969C771.729 6.19199 775.777 11.344 779.825 18.152L743.761 118.8C737.505 135.176 728.857 146.4 724.073 151H743.577C739.345 146.952 741.737 136.464 745.969 123.032L782.217 22.2C784.241 26.064 786.265 30.296 788.105 34.712L818.649 118.8C823.985 134.256 827.297 146.4 822.513 151ZM859.981 151H950.877L951.981 147.32L956.397 131.68C952.165 136.464 942.229 147.32 917.941 147.32H897.149C881.877 147.32 881.509 132.6 881.509 117.512V37.104C881.509 22.016 884.453 8.216 889.237 3.61599H859.981C864.765 8.216 867.709 22.016 867.709 37.104V117.512C867.709 132.6 864.765 146.4 859.981 151ZM67.296 305.944C85.88 305.944 103.544 297.296 114.768 279.448L111.824 277.24C99.496 293.616 86.984 297.296 73.736 297.296C53.496 297.296 28.288 285.336 23.688 229.216C19.088 173.28 40.616 157.824 60.856 157.824C71.344 157.824 83.856 166.104 88.272 183.216L102.44 165.184C92.32 156.904 79.992 152.856 67.296 152.856C35.832 152.856 7.68 177.696 7.68 229.216C7.68 281.104 35.832 305.944 67.296 305.944ZM179.601 305.944C211.065 305.944 239.585 281.104 239.585 229.216C239.585 177.696 211.065 152.856 179.601 152.856C148.137 152.856 119.985 177.696 119.985 229.216C119.985 281.104 148.137 305.944 179.601 305.944ZM135.993 229.216C131.393 173.28 152.921 157.824 173.161 157.824C193.585 157.824 218.977 173.28 223.577 229.216C228.177 285.336 206.465 300.976 186.041 300.976C165.801 300.976 140.593 285.336 135.993 229.216ZM338.785 303H342.465V189.104C342.465 174.016 345.409 160.216 350.193 155.616H331.057C335.841 160.216 338.785 174.016 338.785 189.104V275.584L286.161 187.816C277.329 172.912 271.993 160.768 274.569 155.616H242.553C246.417 157.272 251.201 161.872 255.985 167.944V269.512C255.985 284.6 253.041 298.4 248.257 303H267.393C262.609 298.4 259.665 284.6 259.665 269.512V172.728C262.977 177.328 266.289 182.48 269.601 187.816L338.785 303ZM412.519 303H435.335C432.575 300.424 428.527 295.272 424.479 288.464L460.543 187.816C466.799 171.44 475.447 160.216 480.231 155.616H460.727C464.959 159.664 462.567 170.152 458.335 183.584L422.087 284.416C420.063 280.552 418.039 276.32 416.199 271.904L385.655 187.816C380.319 172.36 377.007 160.216 381.791 155.616H351.063C355.663 160.032 364.127 171.808 370.199 186.712L412.519 303ZM483.356 303H572.412L573.516 299.32L577.932 283.68C573.7 288.464 563.764 299.32 539.476 299.32H520.524C505.252 299.32 504.884 284.6 504.884 269.512V245.04C504.884 226.456 512.244 220.752 527.332 220.752H533.404C548.492 220.752 562.292 225.72 566.892 230.504V207.32C562.292 212.104 548.492 217.072 533.404 217.072H527.332C516.292 217.072 508.932 219.832 504.884 227.008V189.104C504.884 174.016 505.252 159.296 520.34 159.296H540.764C563.028 159.296 569.652 165.184 574.252 169.968V155.616H483.356C488.14 160.216 491.084 174.016 491.084 189.104V269.512C491.084 284.6 488.14 298.4 483.356 303ZM587.215 303H616.471C611.687 298.4 608.743 284.6 608.743 269.512V229.4C612.055 236.576 622.175 241.728 634.871 241.728C653.823 242.28 662.655 253.136 666.703 269.512C670.199 284.6 666.703 298.4 661.919 303H690.807C686.391 298.768 684.735 288.28 680.687 274.112C676.455 255.712 667.071 243.936 649.591 239.888C668.727 235.104 682.527 220.384 682.527 198.12C682.527 170.704 658.607 152.856 629.719 152.856C619.967 152.856 615.919 155.616 607.271 155.616H587.215C591.999 160.216 594.943 174.016 594.943 189.104V269.512C594.943 284.6 591.999 298.4 587.215 303ZM608.743 206.216V188.92C608.743 174.016 609.847 156.536 627.695 156.536C641.679 156.536 661.735 165.368 665.415 192.6C669.279 220.568 656.583 238.048 634.871 238.048C624.199 238.048 608.743 231.792 608.743 206.216ZM757.523 305.944C779.051 305.944 800.211 298.952 800.947 267.304V224.248H764.331C779.419 231.976 786.779 242.648 786.779 257.736V265.464C786.779 295.824 776.107 302.08 761.939 302.08C741.699 302.08 716.491 285.336 711.891 229.216C707.291 173.28 728.819 157.824 749.059 157.824C762.491 157.824 780.707 166.84 783.651 191.496L798.371 172.912C787.147 159.48 771.691 152.856 755.499 152.856C724.035 152.856 695.883 177.696 695.883 229.216C695.883 281.104 724.035 305.944 757.523 305.944ZM812.004 303H901.06L902.164 299.32L906.58 283.68C902.348 288.464 892.412 299.32 868.124 299.32H849.172C833.9 299.32 833.532 284.6 833.532 269.512V245.04C833.532 226.456 840.892 220.752 855.98 220.752H862.052C877.14 220.752 890.94 225.72 895.54 230.504V207.32C890.94 212.104 877.14 217.072 862.052 217.072H855.98C844.94 217.072 837.58 219.832 833.532 227.008V189.104C833.532 174.016 833.9 159.296 848.988 159.296H869.412C891.676 159.296 898.3 165.184 902.9 169.968V155.616H812.004C816.788 160.216 819.732 174.016 819.732 189.104V269.512C819.732 284.6 816.788 298.4 812.004 303ZM1011.18 303H1014.86V189.104C1014.86 174.016 1017.8 160.216 1022.58 155.616H1003.45C1008.23 160.216 1011.18 174.016 1011.18 189.104V275.584L958.552 187.816C949.72 172.912 944.384 160.768 946.96 155.616H914.944C918.808 157.272 923.592 161.872 928.376 167.944V269.512C928.376 284.6 925.432 298.4 920.648 303H939.784C935 298.4 932.056 284.6 932.056 269.512V172.728C935.368 177.328 938.68 182.48 941.992 187.816L1011.18 303ZM1088.46 305.944C1107.04 305.944 1124.71 297.296 1135.93 279.448L1132.99 277.24C1120.66 293.616 1108.15 297.296 1094.9 297.296C1074.66 297.296 1049.45 285.336 1044.85 229.216C1040.25 173.28 1061.78 157.824 1082.02 157.824C1092.51 157.824 1105.02 166.104 1109.44 183.216L1123.6 165.184C1113.48 156.904 1101.16 152.856 1088.46 152.856C1057 152.856 1028.84 177.696 1028.84 229.216C1028.84 281.104 1057 305.944 1088.46 305.944ZM1142.09 303H1231.15L1232.25 299.32L1236.67 283.68C1232.43 288.464 1222.5 299.32 1198.21 299.32H1179.26C1163.99 299.32 1163.62 284.6 1163.62 269.512V245.04C1163.62 226.456 1170.98 220.752 1186.07 220.752H1192.14C1207.23 220.752 1221.03 225.72 1225.63 230.504V207.32C1221.03 212.104 1207.23 217.072 1192.14 217.072H1186.07C1175.03 217.072 1167.67 219.832 1163.62 227.008V189.104C1163.62 174.016 1163.99 159.296 1179.07 159.296H1199.5C1221.76 159.296 1228.39 165.184 1232.99 169.968V155.616H1142.09C1146.87 160.216 1149.82 174.016 1149.82 189.104V269.512C1149.82 284.6 1146.87 298.4 1142.09 303Z" fill="url(#paint0_linear_1_43)"/>
<defs>
<linearGradient id="paint0_linear_1_43" x1="624" y1="1" x2="624" y2="305" gradientUnits="userSpaceOnUse">
<stop stop-color="#CE2471"/>
<stop offset="1" stop-color="#EBCC6E"/>
</linearGradient>
</defs>
</svg>
