<svg width="341" height="88" viewBox="0 0 341 88" fill="none" xmlns="http://www.w3.org/2000/svg">
<path d="M60.0466 42H68.5464C67.274 40.7785 64.9327 37.5211 63.2531 33.3984L51.5469 1.23168H45.2357C45.9991 1.94423 47.1189 3.36934 48.2386 5.25252L40.5023 26.731C37.3976 35.2307 37.9574 42.1527 45.8973 42.1527C53.7863 42.1527 56.8401 35.4343 55.8731 24.5424L58.9778 33.0931C60.4538 37.3684 61.37 40.7276 60.0466 42ZM41.622 26.6292L48.9002 6.37225C49.4601 7.44109 50.02 8.61171 50.5289 9.83323L55.415 23.27L52.3103 24.7969L47.6787 27.1381C50.6307 27.3417 52.6157 29.0722 52.3612 33.0422C51.6996 38.2336 49.4601 41.1348 45.8973 41.1348C38.8736 41.1348 38.5173 35.1798 41.622 26.6292ZM70.4073 42H78.4999C77.1766 40.7276 76.3622 36.9103 76.3622 32.7368V21.6413C77.2784 23.6263 80.0777 25.0514 83.5896 25.0514C88.8319 25.2041 91.275 28.207 92.3947 32.7368C93.3618 36.9103 92.3947 40.7276 91.0714 42H99.0622C97.8407 40.8294 97.3826 37.9283 96.2629 34.0092C95.0923 28.9195 92.4965 25.6621 87.6613 24.5424C92.9546 23.2191 96.7718 19.1473 96.7718 12.9888C96.7718 5.40521 90.1553 0.468227 82.1645 0.468227C79.4669 0.468227 78.3472 1.23168 75.9551 1.23168H70.4073C71.7306 2.5041 72.545 6.32136 72.545 10.4949V32.7368C72.545 36.9103 71.7306 40.7276 70.4073 42ZM76.3622 15.2283V10.444C76.3622 6.32136 76.6676 1.48616 81.6046 1.48616C85.4728 1.48616 91.0205 3.92921 92.0384 11.4619C93.1073 19.1982 89.5954 24.0334 83.5896 24.0334C80.6376 24.0334 76.3622 22.3029 76.3622 15.2283ZM111.115 42H119.207C117.884 40.7276 117.07 36.9103 117.07 32.7368V10.4949C117.07 6.32136 117.172 2.24962 121.345 2.24962H121.549C128.267 2.24962 130.659 5.25252 132.186 6.57584L130.965 2.24962L130.659 1.23168H99.663L99.3576 2.24962L98.1361 6.57584C99.663 5.25252 102.055 2.24962 108.774 2.24962H108.977C113.151 2.24962 113.252 6.32136 113.252 10.4949V32.7368C113.252 36.9103 112.438 40.7276 111.115 42ZM133.879 42H141.972C140.648 40.7276 139.834 36.9103 139.834 32.7368V10.4949C139.834 6.32136 140.648 2.5041 141.972 1.23168H133.879C135.202 2.5041 136.017 6.32136 136.017 10.4949V32.7368C136.017 36.9103 135.202 40.7276 133.879 42ZM157.432 42.8143C164.964 42.8143 171.326 38.539 171.326 31.4135C171.326 15.6355 150.51 20.2671 150.51 7.59378C150.51 3.77652 154.378 1.48616 158.042 1.48616C162.827 1.48616 165.422 4.23459 165.931 8.20454L169.494 3.72562C165.881 3.72562 163.845 0.468227 157.788 0.468227C151.833 0.468227 146.591 3.72562 146.591 9.12068C146.591 23.3209 167.255 20.2671 167.255 32.0751C167.255 38.1318 162.674 41.7964 158.144 41.7964C152.495 41.7964 148.627 36.9103 148.627 29.9375L144.504 35.1798C146.031 40.015 150.662 42.8143 157.432 42.8143ZM198.319 42H206.819C205.547 40.7785 203.205 37.5211 201.526 33.3984L189.82 1.23168H183.508C184.272 1.94423 185.391 3.36934 186.511 5.25252L176.535 33.0931C174.805 37.6229 172.413 40.7276 171.089 42H176.485C175.314 40.8803 175.976 37.9792 177.146 34.2637L187.173 6.37225C187.733 7.44109 188.293 8.61171 188.802 9.83323L197.25 33.0931C198.726 37.3684 199.643 40.7276 198.319 42ZM233.955 42H234.973V10.4949C234.973 6.32136 235.787 2.5041 237.11 1.23168H231.817C233.14 2.5041 233.955 6.32136 233.955 10.4949V34.4164L219.398 10.1386C216.955 6.01598 215.479 2.65679 216.192 1.23168H207.336C208.404 1.68975 209.728 2.96217 211.051 4.64176V32.7368C211.051 36.9103 210.237 40.7276 208.913 42H214.207C212.883 40.7276 212.069 36.9103 212.069 32.7368V5.96508C212.985 7.2375 213.901 8.66261 214.817 10.1386L233.955 42ZM264.674 42H273.174C271.901 40.7785 269.56 37.5211 267.88 33.3984L256.174 1.23168H249.863C250.626 1.94423 251.746 3.36934 252.866 5.25252L242.89 33.0931C241.16 37.6229 238.767 40.7276 237.444 42H242.839C241.669 40.8803 242.33 37.9792 243.501 34.2637L253.528 6.37225C254.087 7.44109 254.647 8.61171 255.156 9.83323L263.605 33.0931C265.081 37.3684 265.997 40.7276 264.674 42ZM275.038 42H300.181L300.487 40.9821L301.708 36.6558C300.537 37.9792 297.789 40.9821 291.071 40.9821H285.319C281.095 40.9821 280.993 36.9103 280.993 32.7368V10.4949C280.993 6.32136 281.807 2.5041 283.131 1.23168H275.038C276.362 2.5041 277.176 6.32136 277.176 10.4949V32.7368C277.176 36.9103 276.362 40.7276 275.038 42ZM17.0023 87.8143C22.1429 87.8143 27.0289 85.4222 30.1337 80.4852L29.3193 79.8745C25.9092 84.4043 22.4482 85.4222 18.7837 85.4222C13.185 85.4222 6.21216 82.1139 4.93975 66.5904C3.66733 51.1178 9.62225 46.8424 15.2209 46.8424C18.122 46.8424 21.583 49.1328 22.8045 53.8662L26.7236 48.8783C23.9242 46.588 20.5142 45.4682 17.0023 45.4682C8.29893 45.4682 0.511725 52.3393 0.511725 66.5904C0.511725 80.9433 8.29893 87.8143 17.0023 87.8143ZM48.0672 87.8143C56.7706 87.8143 64.6596 80.9433 64.6596 66.5904C64.6596 52.3393 56.7706 45.4682 48.0672 45.4682C39.3639 45.4682 31.5767 52.3393 31.5767 66.5904C31.5767 80.9433 39.3639 87.8143 48.0672 87.8143ZM36.0047 66.5904C34.7323 51.1178 40.6872 46.8424 46.2858 46.8424C51.9354 46.8424 58.9591 51.1178 60.2315 66.5904C61.504 82.1139 55.4981 86.4401 49.8486 86.4401C44.25 86.4401 37.2771 82.1139 36.0047 66.5904ZM92.0997 87H93.1176V55.4949C93.1176 51.3214 93.932 47.5041 95.2553 46.2317H89.962C91.2853 47.5041 92.0997 51.3214 92.0997 55.4949V79.4164L77.5432 55.1386C75.1002 51.016 73.6241 47.6568 74.3367 46.2317H65.4807C66.5495 46.6897 67.8728 47.9622 69.1961 49.6418V77.7368C69.1961 81.9103 68.3818 85.7276 67.0585 87H72.3517C71.0284 85.7276 70.2141 81.9103 70.2141 77.7368V50.9651C71.1302 52.2375 72.0463 53.6626 72.9625 55.1386L92.0997 87ZM112.495 87H118.807C118.043 86.2874 116.923 84.8623 115.804 82.9792L125.779 55.1386C127.51 50.6088 129.902 47.5041 131.225 46.2317H125.83C127.001 47.3514 126.339 50.2525 125.169 53.968L115.142 81.8594C114.582 80.7906 114.022 79.62 113.513 78.3984L105.064 55.1386C103.588 50.8633 102.672 47.5041 103.996 46.2317H95.4958C96.7683 47.4532 99.1095 50.7106 100.789 54.8332L112.495 87ZM132.09 87H156.724L157.029 85.9821L158.251 81.6558C157.08 82.9792 154.332 85.9821 147.613 85.9821H142.371C138.147 85.9821 138.045 81.9103 138.045 77.7368V70.9675C138.045 65.8269 140.081 64.2491 144.254 64.2491H145.934C150.107 64.2491 153.925 65.6234 155.197 66.9467V60.5337C153.925 61.857 150.107 63.2312 145.934 63.2312H144.254C141.2 63.2312 139.164 63.9947 138.045 65.9796V55.4949C138.045 51.3214 138.147 47.2496 142.32 47.2496H147.97C154.128 47.2496 155.96 48.8783 157.233 50.2016V46.2317H132.09C133.413 47.5041 134.228 51.3214 134.228 55.4949V77.7368C134.228 81.9103 133.413 85.7276 132.09 87ZM160.819 87H168.911C167.588 85.7276 166.774 81.9103 166.774 77.7368V66.6413C167.69 68.6263 170.489 70.0514 174.001 70.0514C179.243 70.2041 181.686 73.207 182.806 77.7368C183.773 81.9103 182.806 85.7276 181.483 87H189.474C188.252 85.8294 187.794 82.9283 186.674 79.0092C185.504 73.9195 182.908 70.6621 178.073 69.5424C183.366 68.2191 187.183 64.1473 187.183 57.9888C187.183 50.4052 180.567 45.4682 172.576 45.4682C169.878 45.4682 168.759 46.2317 166.366 46.2317H160.819C162.142 47.5041 162.956 51.3214 162.956 55.4949V77.7368C162.956 81.9103 162.142 85.7276 160.819 87ZM166.774 60.2283V55.444C166.774 51.3214 167.079 46.4862 172.016 46.4862C175.884 46.4862 181.432 48.9292 182.45 56.4619C183.519 64.1982 180.007 69.0334 174.001 69.0334C171.049 69.0334 166.774 67.3029 166.774 60.2283ZM207.928 87.8143C213.883 87.8143 219.736 85.8803 219.94 77.126V65.2162H209.811C213.985 67.3538 216.021 70.3059 216.021 74.4794V76.6171C216.021 85.015 213.069 86.7455 209.15 86.7455C203.551 86.7455 196.578 82.1139 195.306 66.5904C194.033 51.1178 199.988 46.8424 205.587 46.8424C209.302 46.8424 214.341 49.3364 215.155 56.1566L219.227 51.016C216.122 47.3005 211.847 45.4682 207.368 45.4682C198.665 45.4682 190.878 52.3393 190.878 66.5904C190.878 80.9433 198.665 87.8143 207.928 87.8143ZM222.998 87H247.632L247.938 85.9821L249.159 81.6558C247.989 82.9792 245.24 85.9821 238.522 85.9821H233.279C229.055 85.9821 228.953 81.9103 228.953 77.7368V70.9675C228.953 65.8269 230.989 64.2491 235.163 64.2491H236.842C241.016 64.2491 244.833 65.6234 246.105 66.9467V60.5337C244.833 61.857 241.016 63.2312 236.842 63.2312H235.163C232.109 63.2312 230.073 63.9947 228.953 65.9796V55.4949C228.953 51.3214 229.055 47.2496 233.229 47.2496H238.878C245.037 47.2496 246.869 48.8783 248.141 50.2016V46.2317H222.998C224.322 47.5041 225.136 51.3214 225.136 55.4949V77.7368C225.136 81.9103 224.322 85.7276 222.998 87ZM278.092 87H279.11V55.4949C279.11 51.3214 279.924 47.5041 281.247 46.2317H275.954C277.277 47.5041 278.092 51.3214 278.092 55.4949V79.4164L263.535 55.1386C261.092 51.016 259.616 47.6568 260.329 46.2317H251.473C252.541 46.6897 253.865 47.9622 255.188 49.6418V77.7368C255.188 81.9103 254.374 85.7276 253.05 87H258.344C257.02 85.7276 256.206 81.9103 256.206 77.7368V50.9651C257.122 52.2375 258.038 53.6626 258.954 55.1386L278.092 87ZM299.469 87.8143C304.61 87.8143 309.496 85.4222 312.601 80.4852L311.786 79.8745C308.376 84.4043 304.915 85.4222 301.251 85.4222C295.652 85.4222 288.679 82.1139 287.407 66.5904C286.134 51.1178 292.089 46.8424 297.688 46.8424C300.589 46.8424 304.05 49.1328 305.272 53.8662L309.191 48.8783C306.391 46.588 302.981 45.4682 299.469 45.4682C290.766 45.4682 282.979 52.3393 282.979 66.5904C282.979 80.9433 290.766 87.8143 299.469 87.8143ZM314.304 87H338.938L339.244 85.9821L340.465 81.6558C339.295 82.9792 336.546 85.9821 329.828 85.9821H324.585C320.361 85.9821 320.259 81.9103 320.259 77.7368V70.9675C320.259 65.8269 322.295 64.2491 326.469 64.2491H328.148C332.322 64.2491 336.139 65.6234 337.411 66.9467V60.5337C336.139 61.857 332.322 63.2312 328.148 63.2312H326.469C323.415 63.2312 321.379 63.9947 320.259 65.9796V55.4949C320.259 51.3214 320.361 47.2496 324.535 47.2496H330.184C336.343 47.2496 338.175 48.8783 339.447 50.2016V46.2317H314.304C315.628 47.5041 316.442 51.3214 316.442 55.4949V77.7368C316.442 81.9103 315.628 85.7276 314.304 87Z" fill="url(#paint0_linear_78_136)"/>
<defs>
<linearGradient id="paint0_linear_78_136" x1="170.5" y1="-1" x2="170.5" y2="89" gradientUnits="userSpaceOnUse">
<stop stop-color="#FF9500"/>
<stop offset="0.713542" stop-color="#FF635D"/>
</linearGradient>
</defs>
</svg>
