<svg width="1232" height="306" viewBox="0 0 1232 306" fill="none" xmlns="http://www.w3.org/2000/svg">
<path d="M77.752 151C79.3467 149.528 80.144 147.136 80.144 143.824C80.144 141.125 79.592 137.813 78.488 133.888C77.5067 129.963 75.9733 124.933 73.888 118.8L62.664 87.888C63.032 92.4267 63.216 96.904 63.216 101.32C63.216 117.389 60.2107 129.779 54.2 138.488C48.1893 147.197 38.9893 151.552 26.6 151.552C17.768 151.552 11.2667 149.283 7.096 144.744C2.92533 140.205 0.84 133.888 0.84 125.792C0.84 117.205 2.92533 107.208 7.096 95.8L35.064 18.152C31.1387 11.528 27.52 6.68266 24.208 3.61599H47.024L89.344 119.904C92.1653 126.773 95.3547 133.029 98.912 138.672C102.592 144.315 105.781 148.424 108.48 151H77.752ZM11.144 95.432C6.60533 108.067 4.336 118.248 4.336 125.976C4.336 140.573 11.7573 147.872 26.6 147.872C32.9787 147.872 38.1307 145.357 42.056 140.328C46.104 135.299 48.7413 128.061 49.968 118.616C50.4587 111.747 49.1707 106.595 46.104 103.16C43.0373 99.6027 38.6827 97.64 33.04 97.272L49.784 88.808L61.008 83.288L43.344 34.712C41.6267 30.5413 39.664 26.3707 37.456 22.2L11.144 95.432ZM115.208 151C117.538 148.792 119.378 144.621 120.728 138.488C122.2 132.232 122.936 125.24 122.936 117.512V37.104C122.936 29.376 122.2 22.4453 120.728 16.312C119.378 10.056 117.538 5.82399 115.208 3.61599H135.264C137.594 3.61599 139.802 3.43199 141.888 3.064C143.973 2.69599 145.261 2.45066 145.752 2.32799C150.413 1.34666 154.4 0.855992 157.712 0.855992C167.402 0.855992 176.234 2.75733 184.208 6.56C192.304 10.24 198.682 15.5147 203.344 22.384C208.128 29.2533 210.52 37.1653 210.52 46.12C210.52 56.9147 207.514 65.992 201.504 73.352C195.493 80.5893 187.52 85.4347 177.584 87.888C186.17 89.8507 192.917 93.7147 197.824 99.48C202.853 105.123 206.472 112.667 208.68 122.112L211.256 131.864C212.728 137.507 213.954 141.739 214.936 144.56C216.04 147.381 217.328 149.528 218.8 151H189.912C191.752 149.283 193.224 146.523 194.328 142.72C195.554 138.917 196.168 134.624 196.168 129.84C196.168 126.16 195.677 122.051 194.696 117.512C192.488 108.803 188.869 102.056 183.84 97.272C178.933 92.488 171.941 89.9733 162.864 89.728C156.608 89.728 151.088 88.624 146.304 86.416C141.642 84.0853 138.453 81.08 136.735 77.4V117.512C136.735 125.24 137.41 132.232 138.76 138.488C140.232 144.621 142.133 148.792 144.464 151H115.208ZM136.735 54.216C136.735 65.7467 139.373 73.9653 144.648 78.872C150.045 83.656 156.117 86.048 162.864 86.048C172.432 86.048 180.037 82.8587 185.68 76.48C191.322 69.9787 194.144 61.208 194.144 50.168C194.144 46.7333 193.898 43.544 193.408 40.6C192.304 32.136 189.666 25.2053 185.496 19.808C181.448 14.4107 176.725 10.5467 171.328 8.216C166.053 5.76266 160.84 4.53599 155.688 4.53599C150.168 4.53599 145.997 6.13066 143.176 9.31999C140.477 12.3867 138.698 16.1893 137.84 20.728C137.104 25.144 136.735 30.5413 136.735 36.92V54.216ZM262.372 151C264.702 148.792 266.542 144.621 267.892 138.488C269.364 132.232 270.1 125.24 270.1 117.512V37.104C270.1 30.6027 269.793 25.3893 269.18 21.464C268.689 17.416 267.278 14.0427 264.948 11.344C262.74 8.64533 259.305 7.296 254.644 7.296H253.908C244.462 7.296 237.102 8.58399 231.828 11.16C226.553 13.736 222.628 16.1893 220.052 18.52C217.598 20.8507 216.065 22.3227 215.452 22.936L219.868 7.296L220.972 3.61599H333.028L334.132 7.296L338.548 22.936C337.934 22.3227 336.033 20.544 332.844 17.6C329.654 14.656 325.238 12.2027 319.596 10.24C313.953 8.27733 307.452 7.296 300.092 7.296H299.356C294.694 7.296 291.198 8.64533 288.868 11.344C286.66 14.0427 285.249 17.416 284.636 21.464C284.145 25.3893 283.9 30.6027 283.9 37.104V117.512C283.9 125.24 284.574 132.232 285.924 138.488C287.396 144.621 289.297 148.792 291.628 151H262.372ZM344.668 151C346.999 148.792 348.839 144.621 350.188 138.488C351.66 132.232 352.396 125.24 352.396 117.512V37.104C352.396 29.376 351.66 22.4453 350.188 16.312C348.839 10.056 346.999 5.82399 344.668 3.61599H373.924C371.594 5.82399 369.692 10.056 368.22 16.312C366.871 22.4453 366.196 29.376 366.196 37.104V117.512C366.196 125.24 366.871 132.232 368.22 138.488C369.692 144.621 371.594 148.792 373.924 151H344.668ZM429.814 153.944C417.67 153.944 407.55 151.552 399.454 146.768C391.358 141.984 385.9 135.176 383.078 126.344L397.982 107.392C397.982 115.733 399.393 123.155 402.214 129.656C405.158 136.157 409.206 141.248 414.358 144.928C419.633 148.485 425.644 150.264 432.39 150.264C437.91 150.264 443.185 148.853 448.214 146.032C453.366 143.088 457.476 138.979 460.542 133.704C463.732 128.307 465.326 122.112 465.326 115.12C465.326 108.741 463.793 103.344 460.726 98.928C457.66 94.512 453.796 90.8933 449.134 88.072C444.596 85.128 438.401 81.816 430.55 78.136C421.841 73.9653 414.849 70.1627 409.574 66.728C404.3 63.2933 399.822 58.7547 396.142 53.112C392.462 47.4693 390.622 40.4773 390.622 32.136C390.622 25.88 392.462 20.36 396.142 15.576C399.822 10.792 404.729 7.17333 410.862 4.72C417.118 2.14399 423.865 0.855992 431.102 0.855992C436.622 0.855992 441.284 1.46932 445.086 2.69599C449.012 3.92266 453.305 5.63999 457.966 7.84799C461.156 9.44266 463.854 10.6693 466.062 11.528C468.393 12.264 470.846 12.632 473.422 12.632L460.542 28.824C459.561 21.3413 456.617 15.4533 451.71 11.16C446.926 6.74399 440.364 4.53599 432.022 4.53599C427.484 4.53599 423.129 5.45599 418.958 7.296C414.788 9.01333 411.353 11.5893 408.654 15.024C406.078 18.336 404.79 22.2 404.79 26.616C404.79 33.3627 406.324 39.0053 409.39 43.544C412.457 48.0827 416.26 51.7627 420.798 54.584C425.337 57.2827 431.532 60.4107 439.382 63.968C448.337 68.1387 455.452 71.9413 460.726 75.376C466.124 78.8107 470.662 83.5947 474.342 89.728C478.145 95.7387 480.046 103.405 480.046 112.728C480.046 121.069 477.777 128.368 473.238 134.624C468.7 140.88 462.628 145.664 455.022 148.976C447.417 152.288 439.014 153.944 429.814 153.944ZM577.63 151C579.224 149.528 580.022 147.136 580.022 143.824C580.022 141.125 579.47 137.813 578.366 133.888C577.384 129.963 575.851 124.933 573.766 118.8L543.222 34.712C541.504 30.5413 539.542 26.3707 537.334 22.2L501.086 123.032C498.019 132.477 496.486 139.469 496.486 144.008C496.486 147.197 497.222 149.528 498.694 151H479.19C482.134 148.179 485.446 143.947 489.126 138.304C492.806 132.661 496.056 126.16 498.878 118.8L534.942 18.152C531.016 11.528 527.398 6.68266 524.086 3.61599H546.902L589.222 119.904C592.043 126.773 595.232 133.029 598.79 138.672C602.47 144.315 605.659 148.424 608.358 151H577.63ZM637.273 35.816C633.47 29.56 630.158 24.5307 627.337 20.728V117.512C627.337 125.24 628.012 132.232 629.361 138.488C630.833 144.621 632.734 148.792 635.065 151H615.929C618.26 148.792 620.1 144.621 621.449 138.488C622.921 132.232 623.657 125.24 623.657 117.512V15.944C618.505 9.31999 614.028 5.21066 610.225 3.61599H642.241C641.75 4.84266 641.505 5.94666 641.505 6.92799C641.505 12.448 645.614 22.0773 653.833 35.816L706.457 123.584V37.104C706.457 29.376 705.721 22.4453 704.249 16.312C702.9 10.056 701.06 5.82399 698.729 3.61599H717.865C715.534 5.82399 713.633 10.056 712.161 16.312C710.812 22.4453 710.137 29.376 710.137 37.104V151H706.457L637.273 35.816ZM817.513 151C819.107 149.528 819.905 147.136 819.905 143.824C819.905 141.125 819.353 137.813 818.249 133.888C817.267 129.963 815.734 124.933 813.649 118.8L783.105 34.712C781.387 30.5413 779.425 26.3707 777.217 22.2L740.969 123.032C737.902 132.477 736.369 139.469 736.369 144.008C736.369 147.197 737.105 149.528 738.577 151H719.073C722.017 148.179 725.329 143.947 729.009 138.304C732.689 132.661 735.939 126.16 738.761 118.8L774.825 18.152C770.899 11.528 767.281 6.68266 763.969 3.61599H786.785L829.105 119.904C831.926 126.773 835.115 133.029 838.673 138.672C842.353 144.315 845.542 148.424 848.241 151H817.513ZM854.981 151C857.312 148.792 859.152 144.621 860.501 138.488C861.973 132.232 862.709 125.24 862.709 117.512V37.104C862.709 29.376 861.973 22.4453 860.501 16.312C859.152 10.056 857.312 5.82399 854.981 3.61599H884.237C881.906 5.82399 880.005 10.056 878.533 16.312C877.184 22.4453 876.509 29.376 876.509 37.104V117.512C876.509 124.013 876.754 129.288 877.245 133.336C877.858 137.261 879.269 140.573 881.477 143.272C883.808 145.971 887.365 147.32 892.149 147.32H912.941C923.49 147.32 931.586 145.787 937.229 142.72C942.994 139.531 947.717 135.851 951.397 131.68L946.981 147.32L945.877 151H854.981ZM62.296 305.944C51.5013 305.944 41.5653 303.123 32.488 297.48C23.4107 291.715 16.1733 283.067 10.776 271.536C5.37867 259.883 2.68 245.776 2.68 229.216C2.68 212.656 5.37867 198.672 10.776 187.264C16.1733 175.733 23.4107 167.147 32.488 161.504C41.5653 155.739 51.5013 152.856 62.296 152.856C68.7973 152.856 74.992 153.899 80.88 155.984C86.8907 158.069 92.4107 161.136 97.44 165.184L83.272 183.216C81.1867 175.12 77.5067 168.864 72.232 164.448C66.9573 160.032 61.4987 157.824 55.856 157.824C45.184 157.824 36.2293 162.24 28.992 171.072C21.7547 179.904 18.136 194.44 18.136 214.68C18.136 219.219 18.32 224.064 18.688 229.216C20.7733 254.608 26.5387 272.333 35.984 282.392C45.4293 292.328 56.3467 297.296 68.736 297.296C76.096 297.296 82.8427 295.885 88.976 293.064C95.1093 290.12 101.059 284.845 106.824 277.24L109.768 279.448C104.248 288.157 97.3173 294.781 88.976 299.32C80.7573 303.736 71.864 305.944 62.296 305.944ZM174.601 305.944C163.806 305.944 153.87 303.123 144.793 297.48C135.715 291.715 128.478 283.067 123.081 271.536C117.683 259.883 114.985 245.776 114.985 229.216C114.985 212.656 117.683 198.672 123.081 187.264C128.478 175.733 135.715 167.147 144.793 161.504C153.87 155.739 163.806 152.856 174.601 152.856C185.395 152.856 195.331 155.739 204.409 161.504C213.609 167.147 220.907 175.733 226.305 187.264C231.825 198.795 234.585 212.779 234.585 229.216C234.585 245.776 231.825 259.821 226.305 271.352C220.907 282.883 213.609 291.531 204.409 297.296C195.331 303.061 185.395 305.944 174.601 305.944ZM130.993 229.216C132.465 246.757 135.777 260.864 140.929 271.536C146.081 282.208 152.153 289.813 159.145 294.352C166.137 298.768 173.435 300.976 181.041 300.976C191.835 300.976 200.851 296.56 208.089 287.728C215.449 278.773 219.129 264.115 219.129 243.752C219.129 239.213 218.945 234.368 218.577 229.216C217.105 211.675 213.731 197.629 208.457 187.08C203.305 176.408 197.171 168.864 190.057 164.448C183.065 160.032 175.766 157.824 168.161 157.824C157.489 157.824 148.534 162.24 141.297 171.072C134.059 179.904 130.441 194.44 130.441 214.68C130.441 219.219 130.625 224.064 130.993 229.216ZM264.601 187.816C260.798 181.56 257.486 176.531 254.665 172.728V269.512C254.665 277.24 255.34 284.232 256.689 290.488C258.161 296.621 260.062 300.792 262.393 303H243.257C245.588 300.792 247.428 296.621 248.777 290.488C250.249 284.232 250.985 277.24 250.985 269.512V167.944C245.833 161.32 241.356 157.211 237.553 155.616H269.569C269.078 156.843 268.833 157.947 268.833 158.928C268.833 164.448 272.942 174.077 281.161 187.816L333.785 275.584V189.104C333.785 181.376 333.049 174.445 331.577 168.312C330.228 162.056 328.388 157.824 326.057 155.616H345.193C342.862 157.824 340.961 162.056 339.489 168.312C338.14 174.445 337.465 181.376 337.465 189.104V303H333.785L264.601 187.816ZM365.199 186.712C362.377 179.843 359.127 173.587 355.447 167.944C351.889 162.301 348.761 158.192 346.063 155.616H376.791C375.196 157.088 374.399 159.48 374.399 162.792C374.399 165.491 374.889 168.803 375.871 172.728C376.975 176.653 378.569 181.683 380.655 187.816L411.199 271.904C412.916 276.075 414.879 280.245 417.087 284.416L453.335 183.584C456.401 174.139 457.935 167.147 457.935 162.608C457.935 159.419 457.199 157.088 455.727 155.616H475.231C472.287 158.437 468.975 162.669 465.295 168.312C461.615 173.955 458.364 180.456 455.543 187.816L419.479 288.464C423.404 295.088 427.023 299.933 430.335 303H407.519L365.199 186.712ZM478.356 303C480.687 300.792 482.527 296.621 483.876 290.488C485.348 284.232 486.084 277.24 486.084 269.512V189.104C486.084 181.376 485.348 174.445 483.876 168.312C482.527 162.056 480.687 157.824 478.356 155.616H569.252V169.968C566.063 166.656 562.137 164.08 557.476 162.24C552.815 160.277 545.577 159.296 535.764 159.296H515.34C510.679 159.296 507.183 160.645 504.852 163.344C502.644 166.043 501.233 169.416 500.62 173.464C500.129 177.389 499.884 182.603 499.884 189.104V227.008C501.847 223.451 504.668 220.936 508.348 219.464C512.028 217.869 516.689 217.072 522.332 217.072H528.404C535.641 217.072 542.388 216.091 548.644 214.128C555.023 212.165 559.439 209.896 561.892 207.32V230.504C559.439 227.928 555.023 225.659 548.644 223.696C542.388 221.733 535.641 220.752 528.404 220.752H522.332C514.481 220.752 508.777 222.592 505.22 226.272C501.663 229.829 499.884 236.085 499.884 245.04V269.512C499.884 276.013 500.129 281.288 500.62 285.336C501.233 289.261 502.644 292.573 504.852 295.272C507.183 297.971 510.74 299.32 515.524 299.32H534.476C545.025 299.32 553.121 297.787 558.764 294.72C564.529 291.531 569.252 287.851 572.932 283.68L568.516 299.32L567.412 303H478.356ZM582.215 303C584.546 300.792 586.386 296.621 587.735 290.488C589.207 284.232 589.943 277.24 589.943 269.512V189.104C589.943 181.376 589.207 174.445 587.735 168.312C586.386 162.056 584.546 157.824 582.215 155.616H602.271C604.602 155.616 606.81 155.432 608.895 155.064C610.981 154.696 612.269 154.451 612.759 154.328C617.421 153.347 621.407 152.856 624.719 152.856C634.41 152.856 643.242 154.757 651.215 158.56C659.311 162.24 665.69 167.515 670.351 174.384C675.135 181.253 677.527 189.165 677.527 198.12C677.527 208.915 674.522 217.992 668.511 225.352C662.501 232.589 654.527 237.435 644.591 239.888C653.178 241.851 659.925 245.715 664.831 251.48C669.861 257.123 673.479 264.667 675.687 274.112L678.263 283.864C679.735 289.507 680.962 293.739 681.943 296.56C683.047 299.381 684.335 301.528 685.807 303H656.919C658.759 301.283 660.231 298.523 661.335 294.72C662.562 290.917 663.175 286.624 663.175 281.84C663.175 278.16 662.685 274.051 661.703 269.512C659.495 260.803 655.877 254.056 650.847 249.272C645.941 244.488 638.949 241.973 629.871 241.728C623.615 241.728 618.095 240.624 613.311 238.416C608.65 236.085 605.461 233.08 603.743 229.4V269.512C603.743 277.24 604.418 284.232 605.767 290.488C607.239 296.621 609.141 300.792 611.471 303H582.215ZM603.743 206.216C603.743 217.747 606.381 225.965 611.655 230.872C617.053 235.656 623.125 238.048 629.871 238.048C639.439 238.048 647.045 234.859 652.687 228.48C658.33 221.979 661.151 213.208 661.151 202.168C661.151 198.733 660.906 195.544 660.415 192.6C659.311 184.136 656.674 177.205 652.503 171.808C648.455 166.411 643.733 162.547 638.335 160.216C633.061 157.763 627.847 156.536 622.695 156.536C617.175 156.536 613.005 158.131 610.183 161.32C607.485 164.387 605.706 168.189 604.847 172.728C604.111 177.144 603.743 182.541 603.743 188.92V206.216ZM752.523 305.944C740.992 305.944 730.566 303.123 721.243 297.48C711.92 291.715 704.499 283.067 698.979 271.536C693.582 260.005 690.883 245.899 690.883 229.216C690.883 212.656 693.582 198.672 698.979 187.264C704.376 175.733 711.614 167.147 720.691 161.504C729.768 155.739 739.704 152.856 750.499 152.856C758.718 152.856 766.507 154.573 773.867 158.008C781.35 161.32 787.851 166.288 793.371 172.912L778.651 191.496C777.67 183.768 775.339 177.389 771.659 172.36C768.102 167.331 763.808 163.651 758.779 161.32C753.872 158.989 748.966 157.824 744.059 157.824C733.387 157.824 724.432 162.24 717.195 171.072C709.958 179.904 706.339 194.44 706.339 214.68C706.339 219.219 706.523 224.064 706.891 229.216C708.363 246.757 711.675 260.987 716.827 271.904C722.102 282.699 728.235 290.427 735.227 295.088C742.219 299.749 749.456 302.08 756.939 302.08C764.912 302.08 771.046 299.504 775.339 294.352C779.632 289.2 781.779 279.571 781.779 265.464V257.736C781.779 250.253 779.939 243.813 776.259 238.416C772.579 232.896 766.936 228.173 759.331 224.248H795.947V267.304C795.579 281.779 791.408 291.837 783.435 297.48C775.462 303.123 765.158 305.944 752.523 305.944ZM807.004 303C809.335 300.792 811.175 296.621 812.524 290.488C813.996 284.232 814.732 277.24 814.732 269.512V189.104C814.732 181.376 813.996 174.445 812.524 168.312C811.175 162.056 809.335 157.824 807.004 155.616H897.9V169.968C894.711 166.656 890.786 164.08 886.124 162.24C881.463 160.277 874.226 159.296 864.412 159.296H843.988C839.327 159.296 835.831 160.645 833.5 163.344C831.292 166.043 829.882 169.416 829.268 173.464C828.778 177.389 828.532 182.603 828.532 189.104V227.008C830.495 223.451 833.316 220.936 836.996 219.464C840.676 217.869 845.338 217.072 850.98 217.072H857.052C864.29 217.072 871.036 216.091 877.292 214.128C883.671 212.165 888.087 209.896 890.54 207.32V230.504C888.087 227.928 883.671 225.659 877.292 223.696C871.036 221.733 864.29 220.752 857.052 220.752H850.98C843.13 220.752 837.426 222.592 833.868 226.272C830.311 229.829 828.532 236.085 828.532 245.04V269.512C828.532 276.013 828.778 281.288 829.268 285.336C829.882 289.261 831.292 292.573 833.5 295.272C835.831 297.971 839.388 299.32 844.172 299.32H863.124C873.674 299.32 881.77 297.787 887.412 294.72C893.178 291.531 897.9 287.851 901.58 283.68L897.164 299.32L896.06 303H807.004ZM936.992 187.816C933.189 181.56 929.877 176.531 927.056 172.728V269.512C927.056 277.24 927.73 284.232 929.08 290.488C930.552 296.621 932.453 300.792 934.784 303H915.648C917.978 300.792 919.818 296.621 921.168 290.488C922.64 284.232 923.376 277.24 923.376 269.512V167.944C918.224 161.32 913.746 157.211 909.944 155.616H941.96C941.469 156.843 941.224 157.947 941.224 158.928C941.224 164.448 945.333 174.077 953.552 187.816L1006.18 275.584V189.104C1006.18 181.376 1005.44 174.445 1003.97 168.312C1002.62 162.056 1000.78 157.824 998.448 155.616H1017.58C1015.25 157.824 1013.35 162.056 1011.88 168.312C1010.53 174.445 1009.86 181.376 1009.86 189.104V303H1006.18L936.992 187.816ZM1083.46 305.944C1072.67 305.944 1062.73 303.123 1053.65 297.48C1044.57 291.715 1037.34 283.067 1031.94 271.536C1026.54 259.883 1023.84 245.776 1023.84 229.216C1023.84 212.656 1026.54 198.672 1031.94 187.264C1037.34 175.733 1044.57 167.147 1053.65 161.504C1062.73 155.739 1072.67 152.856 1083.46 152.856C1089.96 152.856 1096.16 153.899 1102.04 155.984C1108.05 158.069 1113.57 161.136 1118.6 165.184L1104.44 183.216C1102.35 175.12 1098.67 168.864 1093.4 164.448C1088.12 160.032 1082.66 157.824 1077.02 157.824C1066.35 157.824 1057.39 162.24 1050.16 171.072C1042.92 179.904 1039.3 194.44 1039.3 214.68C1039.3 219.219 1039.48 224.064 1039.85 229.216C1041.94 254.608 1047.7 272.333 1057.15 282.392C1066.59 292.328 1077.51 297.296 1089.9 297.296C1097.26 297.296 1104.01 295.885 1110.14 293.064C1116.27 290.12 1122.22 284.845 1127.99 277.24L1130.93 279.448C1125.41 288.157 1118.48 294.781 1110.14 299.32C1101.92 303.736 1093.03 305.944 1083.46 305.944ZM1137.09 303C1139.42 300.792 1141.26 296.621 1142.61 290.488C1144.08 284.232 1144.82 277.24 1144.82 269.512V189.104C1144.82 181.376 1144.08 174.445 1142.61 168.312C1141.26 162.056 1139.42 157.824 1137.09 155.616H1227.99V169.968C1224.8 166.656 1220.87 164.08 1216.21 162.24C1211.55 160.277 1204.31 159.296 1194.5 159.296H1174.07C1169.41 159.296 1165.92 160.645 1163.59 163.344C1161.38 166.043 1159.97 169.416 1159.35 173.464C1158.86 177.389 1158.62 182.603 1158.62 189.104V227.008C1160.58 223.451 1163.4 220.936 1167.08 219.464C1170.76 217.869 1175.42 217.072 1181.07 217.072H1187.14C1194.38 217.072 1201.12 216.091 1207.38 214.128C1213.76 212.165 1218.17 209.896 1220.63 207.32V230.504C1218.17 227.928 1213.76 225.659 1207.38 223.696C1201.12 221.733 1194.38 220.752 1187.14 220.752H1181.07C1173.22 220.752 1167.51 222.592 1163.95 226.272C1160.4 229.829 1158.62 236.085 1158.62 245.04V269.512C1158.62 276.013 1158.86 281.288 1159.35 285.336C1159.97 289.261 1161.38 292.573 1163.59 295.272C1165.92 297.971 1169.47 299.32 1174.26 299.32H1193.21C1203.76 299.32 1211.86 297.787 1217.5 294.72C1223.26 291.531 1227.99 287.851 1231.67 283.68L1227.25 299.32L1226.15 303H1137.09Z" fill="url(#paint0_linear_1_43)"/>
<defs>
<linearGradient id="paint0_linear_1_43" x1="619" y1="1" x2="619" y2="305" gradientUnits="userSpaceOnUse">
<stop stop-color="#FF9500"/>
<stop offset="0.713542" stop-color="#FF635D"/>
</linearGradient>
</defs>
</svg>
