<svg width="40" height="40" viewBox="0 0 40 40" fill="none" xmlns="http://www.w3.org/2000/svg">
<rect width="40" height="40" rx="20" fill="white"/>
<g clip-path="url(#clip0_1_38)">
<path d="M11 17V23H15L20 28V12L15 17H11ZM24.5 20C24.5 18.23 23.48 16.71 22 15.97V24.02C23.48 23.29 24.5 21.77 24.5 20ZM22 11.23V13.29C24.89 14.15 27 16.83 27 20C27 23.17 24.89 25.85 22 26.71V28.77C26.01 27.86 29 24.28 29 20C29 15.72 26.01 12.14 22 11.23Z" fill="black"/>
</g>
<defs>
<clipPath id="clip0_1_38">
<rect width="24" height="24" fill="white" transform="translate(8 8)"/>
</clipPath>
</defs>
</svg>
