<svg width="50" height="37" viewBox="0 0 50 37" fill="none" xmlns="http://www.w3.org/2000/svg">
<path d="M15.6239 33.6909C11.4427 37.8722 4.36125 37.8555 2.38359 32.2829C1.99639 31.1918 1.68682 30.07 1.45912 28.9253C0.529455 24.2514 1.00659 19.407 2.83021 15.0044C4.65382 10.6018 7.74199 6.83889 11.7042 4.19142C15.6665 1.54394 20.3248 0.130859 25.0901 0.130859C29.8554 0.13086 34.5138 1.54394 38.4759 4.19142C42.4382 6.83889 45.5264 10.6018 47.35 15.0045C49.1736 19.407 49.6507 24.2514 48.7211 28.9253C48.4934 30.07 48.1838 31.1918 47.7965 32.2829C45.8189 37.8555 38.7375 37.8722 34.5562 33.6909L28.1018 27.2365C27.4852 26.6199 27.5489 25.6029 27.719 24.7477C27.8223 24.2278 27.7693 23.6888 27.5664 23.199C27.3635 22.7093 27.02 22.2906 26.5792 21.9961C26.1385 21.7017 25.6202 21.5444 25.0901 21.5444C24.56 21.5444 24.0418 21.7017 23.601 21.9961C23.1601 22.2906 22.8166 22.7093 22.6137 23.199C22.4108 23.6888 22.3578 24.2278 22.4612 24.7477C22.6314 25.6029 22.6949 26.6199 22.0783 27.2365L15.6239 33.6909Z" fill="url(#paint0_linear_1_553)"/>
<defs>
<linearGradient id="paint0_linear_1_553" x1="46.9908" y1="12.1778" x2="4.22414" y2="12.1778" gradientUnits="userSpaceOnUse">
<stop stop-color="#64C2DB"/>
<stop offset="0.510417" stop-color="#7476ED"/>
<stop offset="1" stop-color="#E56F8C"/>
</linearGradient>
</defs>
</svg>
