<svg width="42" height="43" viewBox="0 0 42 43" fill="none" xmlns="http://www.w3.org/2000/svg">
<path d="M0.184082 38.0072C7.06403 38.0072 12.6413 32.4299 12.6413 25.55C12.6413 18.6701 7.06403 13.0928 0.184082 13.0928V21.8128C2.24805 21.8128 3.92122 23.486 3.92122 25.55C3.92122 27.614 2.24805 29.2872 0.184082 29.2872V38.0072Z" fill="#726BEA"/>
<path d="M41.708 17.2452C39.5793 16.5709 37.3124 16.207 34.9603 16.207C22.6338 16.207 12.6412 26.1998 12.6412 38.5262C12.6412 39.7635 12.7419 40.9772 12.9355 42.1596H26.8031C26.308 41.0497 26.0328 39.8202 26.0328 38.5262C26.0328 33.5956 30.0298 29.5985 34.9603 29.5985C37.6552 29.5985 40.0711 30.7925 41.708 32.6803V17.2452Z" fill="#A5B4FC"/>
<path d="M2.37415 0.635254C3.40693 9.97806 11.3278 17.2449 20.9459 17.2449C30.5639 17.2449 38.4849 9.97806 39.5176 0.635254H26.1545C25.3296 2.70338 23.3083 4.16478 20.9459 4.16478C18.5834 4.16478 16.5623 2.70338 15.7372 0.635254H2.37415Z" fill="#4F46E5"/>
</svg>
