<svg width="82" height="41" viewBox="0 0 82 41" fill="none" xmlns="http://www.w3.org/2000/svg">
<path d="M0.796143 20.3972C0.796144 9.18578 9.88476 0.097167 21.0961 0.097168C27.1745 0.0971685 32.6291 2.7687 36.3494 7.00164C43.0997 14.5802 48.6815 14.1814 54.6092 8.5867C57.5177 5.84058 61.4404 4.15717 65.7561 4.15717C74.7252 4.15718 81.9961 11.4281 81.9961 20.3972C81.9961 29.3663 74.7252 36.6372 65.7561 36.6372C61.4404 36.6372 57.5177 34.9537 54.6092 32.2076C48.6829 26.6141 43.1023 26.2142 36.3543 33.787C32.6338 38.0233 27.1772 40.6972 21.0961 40.6972C9.88476 40.6972 0.796142 31.6085 0.796143 20.3972Z" fill="#F2F5FA"/>
<path d="M0.796143 20.3972C0.796144 9.18578 9.88476 0.097167 21.0961 0.097168C27.1745 0.0971685 32.6291 2.7687 36.3494 7.00164C43.0997 14.5802 48.6815 14.1814 54.6092 8.5867C57.5177 5.84058 61.4404 4.15717 65.7561 4.15717C74.7252 4.15718 81.9961 11.4281 81.9961 20.3972C81.9961 29.3663 74.7252 36.6372 65.7561 36.6372C61.4404 36.6372 57.5177 34.9537 54.6092 32.2076C48.6829 26.6141 43.1023 26.2142 36.3543 33.787C32.6338 38.0233 27.1772 40.6972 21.0961 40.6972C9.88476 40.6972 0.796142 31.6085 0.796143 20.3972Z" fill="url(#paint0_linear_1_545)"/>
<path d="M0.796143 20.3972C0.796144 9.18578 9.88476 0.097167 21.0961 0.097168C27.1745 0.0971685 32.6291 2.7687 36.3494 7.00164C43.0997 14.5802 48.6815 14.1814 54.6092 8.5867C57.5177 5.84058 61.4404 4.15717 65.7561 4.15717C74.7252 4.15718 81.9961 11.4281 81.9961 20.3972C81.9961 29.3663 74.7252 36.6372 65.7561 36.6372C61.4404 36.6372 57.5177 34.9537 54.6092 32.2076C48.6829 26.6141 43.1023 26.2142 36.3543 33.787C32.6338 38.0233 27.1772 40.6972 21.0961 40.6972C9.88476 40.6972 0.796142 31.6085 0.796143 20.3972Z" fill="url(#paint1_linear_1_545)"/>
<path d="M0.796143 20.3972C0.796144 9.18578 9.88476 0.097167 21.0961 0.097168C27.1745 0.0971685 32.6291 2.7687 36.3494 7.00164C43.0997 14.5802 48.6815 14.1814 54.6092 8.5867C57.5177 5.84058 61.4404 4.15717 65.7561 4.15717C74.7252 4.15718 81.9961 11.4281 81.9961 20.3972C81.9961 29.3663 74.7252 36.6372 65.7561 36.6372C61.4404 36.6372 57.5177 34.9537 54.6092 32.2076C48.6829 26.6141 43.1023 26.2142 36.3543 33.787C32.6338 38.0233 27.1772 40.6972 21.0961 40.6972C9.88476 40.6972 0.796142 31.6085 0.796143 20.3972Z" fill="url(#paint2_radial_1_545)"/>
<path d="M0.796143 20.3972C0.796144 9.18578 9.88476 0.097167 21.0961 0.097168C27.1745 0.0971685 32.6291 2.7687 36.3494 7.00164C43.0997 14.5802 48.6815 14.1814 54.6092 8.5867C57.5177 5.84058 61.4404 4.15717 65.7561 4.15717C74.7252 4.15718 81.9961 11.4281 81.9961 20.3972C81.9961 29.3663 74.7252 36.6372 65.7561 36.6372C61.4404 36.6372 57.5177 34.9537 54.6092 32.2076C48.6829 26.6141 43.1023 26.2142 36.3543 33.787C32.6338 38.0233 27.1772 40.6972 21.0961 40.6972C9.88476 40.6972 0.796142 31.6085 0.796143 20.3972Z" fill="url(#paint3_radial_1_545)"/>
<path d="M0.796143 20.3972C0.796144 9.18578 9.88476 0.097167 21.0961 0.097168C27.1745 0.0971685 32.6291 2.7687 36.3494 7.00164C43.0997 14.5802 48.6815 14.1814 54.6092 8.5867C57.5177 5.84058 61.4404 4.15717 65.7561 4.15717C74.7252 4.15718 81.9961 11.4281 81.9961 20.3972C81.9961 29.3663 74.7252 36.6372 65.7561 36.6372C61.4404 36.6372 57.5177 34.9537 54.6092 32.2076C48.6829 26.6141 43.1023 26.2142 36.3543 33.787C32.6338 38.0233 27.1772 40.6972 21.0961 40.6972C9.88476 40.6972 0.796142 31.6085 0.796143 20.3972Z" fill="url(#paint4_radial_1_545)"/>
<defs>
<linearGradient id="paint0_linear_1_545" x1="61.9707" y1="30.4868" x2="15.2212" y2="-5.84342" gradientUnits="userSpaceOnUse">
<stop stop-color="#FF557E"/>
<stop offset="0.841052" stop-color="#FF5555" stop-opacity="0"/>
</linearGradient>
<linearGradient id="paint1_linear_1_545" x1="21.0994" y1="37.9746" x2="33.5895" y2="-5.29279" gradientUnits="userSpaceOnUse">
<stop stop-color="#58CCDC"/>
<stop offset="1" stop-color="#58CCDC" stop-opacity="0"/>
</linearGradient>
<radialGradient id="paint2_radial_1_545" cx="0" cy="0" r="1" gradientUnits="userSpaceOnUse" gradientTransform="translate(64.4792 49.1546) rotate(-122.928) scale(51.8714 42.475)">
<stop stop-color="#8263DB"/>
<stop offset="0.568731" stop-color="#8172DA" stop-opacity="0.26"/>
<stop offset="1" stop-color="#8172DA" stop-opacity="0"/>
</radialGradient>
<radialGradient id="paint3_radial_1_545" cx="0" cy="0" r="1" gradientUnits="userSpaceOnUse" gradientTransform="translate(26.4191 -5.77588) rotate(77.6745) scale(34.9394 54.917)">
<stop stop-color="#41D1B7"/>
<stop offset="0.492704" stop-color="#41D1B7" stop-opacity="0.35"/>
<stop offset="1" stop-color="#41D1B7" stop-opacity="0"/>
</radialGradient>
<radialGradient id="paint4_radial_1_545" cx="0" cy="0" r="1" gradientUnits="userSpaceOnUse" gradientTransform="translate(84.2986 -14.9453) rotate(125.113) scale(37.9569 80.3965)">
<stop stop-color="#FFEC45"/>
<stop offset="0.549191" stop-color="#FFEC45" stop-opacity="0.3"/>
<stop offset="0.961144" stop-color="#FFEC45" stop-opacity="0"/>
</radialGradient>
</defs>
</svg>
