<svg width="55" height="45" viewBox="0 0 55 45" fill="none" xmlns="http://www.w3.org/2000/svg">
<path d="M55 22.3974C55 16.6377 52.7119 11.1138 48.6391 7.04099C44.5663 2.96823 39.0425 0.680177 33.2827 0.680176C27.523 0.680175 21.9992 2.96823 17.9264 7.04099C13.8536 11.1138 11.5656 16.6377 11.5656 22.3974H18.3523C20.6012 22.3974 22.355 20.5128 23.1788 18.4201C23.7196 17.0462 24.5402 15.7835 25.6045 14.7192C27.6409 12.6828 30.4029 11.5388 33.2827 11.5388C36.1626 11.5388 38.9246 12.6828 40.961 14.7192C42.9974 16.7555 44.1413 19.5175 44.1413 22.3974H55Z" fill="url(#paint0_linear_1_561)"/>
<path d="M42.4891 30.7082C43.5805 28.0733 44.1423 25.2493 44.1423 22.3975H54.9998C54.9998 34.3915 45.2766 44.1145 33.2825 44.1145C31.4042 44.1145 29.5815 43.8761 27.8433 43.4279C28.8267 43.1745 29.7934 42.8518 30.7359 42.4615C33.3707 41.37 35.7648 39.7705 37.7815 37.7538C39.7981 35.7372 41.3979 33.3431 42.4891 30.7082Z" fill="#FBCF8E"/>
<path d="M0.708008 22.3975C0.708007 25.2495 1.26974 28.0735 2.36113 30.7083C3.45252 33.3432 5.05219 35.7373 7.06883 37.7539C9.08545 39.7704 11.4795 41.3702 14.1144 42.4616C16.7492 43.553 19.5732 44.1147 22.4252 44.1147C25.2771 44.1147 28.1011 43.553 30.736 42.4616C33.3708 41.3702 35.7649 39.7704 37.7816 37.7539C39.7982 35.7373 41.3978 33.3432 42.4892 30.7083C43.5806 28.0735 44.1424 25.2495 44.1424 22.3975H37.3557C35.1068 22.3975 33.3529 24.2821 32.5292 26.3746C32.5058 26.4343 32.4817 26.4936 32.4572 26.553C31.9115 27.8703 31.1117 29.0674 30.1033 30.0757C29.0951 31.084 27.898 31.8839 26.5806 32.4296C25.2632 32.9753 23.8512 33.2561 22.4252 33.2561C20.9992 33.2561 19.5872 32.9753 18.2699 32.4296C16.9523 31.8839 15.7554 31.084 14.747 30.0757C13.7387 29.0674 12.9389 27.8703 12.3932 26.553C11.8475 25.2355 11.5666 23.8235 11.5666 22.3975H0.708008Z" fill="url(#paint1_linear_1_561)"/>
<path d="M0.710083 22.3974C0.710083 10.4033 10.4332 0.680176 22.4272 0.680176C24.3051 0.680176 26.1273 0.918514 27.8653 1.36661C24.136 2.32733 20.6957 4.27157 17.9262 7.04101C13.8534 11.1137 11.5654 16.6377 11.5654 22.3974H0.710083Z" fill="#73E5E2"/>
<defs>
<linearGradient id="paint0_linear_1_561" x1="55" y1="11.5388" x2="11.5656" y2="11.5388" gradientUnits="userSpaceOnUse">
<stop stop-color="#73E5E2"/>
<stop offset="1" stop-color="#394F87"/>
</linearGradient>
<linearGradient id="paint1_linear_1_561" x1="0.708009" y1="33.2561" x2="44.1424" y2="33.2561" gradientUnits="userSpaceOnUse">
<stop stop-color="#FBDC8E"/>
<stop offset="1" stop-color="#FB958E"/>
</linearGradient>
</defs>
</svg>
