<svg width="148" height="46" viewBox="0 0 148 46" fill="none" xmlns="http://www.w3.org/2000/svg">
<path fill-rule="evenodd" clip-rule="evenodd" d="M72.8756 7.40747C74.2634 6.01977 76.5134 6.01977 77.9012 7.40747C79.289 8.79527 79.289 11.0453 77.9012 12.4331L69.4403 20.894C67.0111 17.6384 67.275 13.0082 70.232 10.0512L72.8756 7.40747Z" fill="#4F9E91"/>
<path fill-rule="evenodd" clip-rule="evenodd" d="M84.971 26.4967C86.359 27.8844 86.359 30.1345 84.971 31.5222C83.584 32.91 81.3336 32.91 79.9458 31.5222L71.4849 23.0614C74.7405 20.6322 79.3707 20.896 82.3277 23.853L84.971 26.4967Z" fill="#EBE1C5"/>
<path fill-rule="evenodd" clip-rule="evenodd" d="M65.8821 38.5924C64.4944 39.9802 62.2443 39.9802 60.8566 38.5924C59.4688 37.2046 59.4688 34.9546 60.8566 33.5668L69.3174 25.106C71.7466 28.3616 71.4828 32.9918 68.5258 35.9487L65.8821 38.5924Z" fill="#EBCC6E"/>
<path fill-rule="evenodd" clip-rule="evenodd" d="M53.7865 19.5032C52.3987 18.1154 52.3987 15.8654 53.7865 14.4776C55.1743 13.0898 57.4243 13.0898 58.8121 14.4776L67.273 22.9385C64.0174 25.3677 59.3871 25.1038 56.4302 22.1469L53.7865 19.5032Z" fill="#ED834E"/>
<path fill-rule="evenodd" clip-rule="evenodd" d="M70.9849 37.5562C73.0312 35.281 73.9823 32.3697 73.838 29.5033L77.9014 33.5667C77.9115 33.5768 77.9217 33.5869 77.9319 33.597V36.498C77.9319 38.4606 76.3409 40.0516 74.3783 40.0516C72.7842 40.0516 71.4353 39.002 70.9849 37.5562Z" fill="#ED834E"/>
<path fill-rule="evenodd" clip-rule="evenodd" d="M54.8226 24.6058C57.0977 26.6522 60.009 27.6033 62.8754 27.459L58.8121 31.5224C58.8019 31.5325 58.7918 31.5427 58.7818 31.5528H55.8808C53.9182 31.5529 52.3272 29.9618 52.3272 27.9992C52.3272 26.4052 53.3768 25.0562 54.8226 24.6058Z" fill="#4F9E91"/>
<path fill-rule="evenodd" clip-rule="evenodd" d="M83.935 21.3942C81.6601 19.3478 78.7488 18.3967 75.8824 18.5409L79.9457 14.4776C79.9559 14.4675 79.9659 14.4573 79.976 14.4471H82.8771C84.84 14.4471 86.431 16.0382 86.431 18.0008C86.431 19.5949 85.381 20.9438 83.935 21.3942Z" fill="#EBCC6E"/>
<path fill-rule="evenodd" clip-rule="evenodd" d="M67.773 8.44368C65.7266 10.7188 64.7756 13.6301 64.9198 16.4966L60.8565 12.4332C60.8463 12.4231 60.8362 12.413 60.826 12.4029V9.50188C60.826 7.53928 62.417 5.94818 64.3796 5.94818C65.9737 5.94818 67.3226 6.99788 67.773 8.44368Z" fill="#EBE1C5"/>
<path fill-rule="evenodd" clip-rule="evenodd" d="M64.3798 3.05701C60.8204 3.05701 57.9349 5.94251 57.9349 9.50191V10.7554C55.7935 10.1959 53.4203 10.7551 51.7422 12.4332C49.2253 14.9501 49.2253 19.0308 51.7422 21.5477L52.6285 22.434C50.7187 23.5526 49.4361 25.6261 49.4361 27.9992C49.4361 31.5586 52.3216 34.4441 55.881 34.4441H57.1344C56.5749 36.5855 57.1341 38.9587 58.8122 40.6367C61.3291 43.1536 65.4098 43.1536 67.9267 40.6367L70.5703 37.9931C72.9024 35.661 73.9916 32.5566 73.8379 29.5032L77.9014 33.5666C80.4183 36.0835 84.4991 36.0835 87.0161 33.5666C89.5331 31.0497 89.5331 26.969 87.0161 24.4522L86.1301 23.566C88.0391 22.4474 89.3221 20.3739 89.3221 18.0008C89.3221 14.4414 86.4361 11.5559 82.8771 11.5559H81.6236C82.1832 9.41441 81.6239 7.04121 79.9458 5.36311C77.429 2.84621 73.3483 2.84621 70.8314 5.36311L68.1877 8.00681C65.8556 10.3389 64.7664 13.4432 64.9201 16.4966L60.8567 12.4332C60.8465 12.4231 60.8364 12.413 60.8262 12.4029V9.50191C60.8262 7.53931 62.4172 5.94831 64.3798 5.94831C65.9739 5.94831 67.3228 6.99791 67.7732 8.44371C67.9067 8.29531 68.0449 8.14961 68.1877 8.00681L69.945 6.24941C68.8264 4.33961 66.7529 3.05701 64.3798 3.05701ZM79.9761 14.4472C79.966 14.4573 79.956 14.4675 79.9458 14.4776L75.8825 18.5409C78.749 18.3967 81.6602 19.3477 83.9351 21.3942C85.3811 20.9438 86.4311 19.5948 86.4311 18.0008C86.4311 16.0382 84.8401 14.4472 82.8771 14.4472H79.9761ZM58.7818 31.5528C58.7919 31.5426 58.802 31.5324 58.8122 31.5223L62.8755 27.4589C60.0091 27.6032 57.0979 26.6521 54.8228 24.6058C53.377 25.0562 52.3273 26.4051 52.3273 27.9992C52.3273 29.9618 53.9184 31.5528 55.881 31.5528H58.7818ZM74.3783 42.943C72.0051 42.943 69.9316 41.6603 68.813 39.7505L70.5703 37.9931C70.7132 37.8503 70.8513 37.7046 70.9848 37.5562C71.4352 39.002 72.7841 40.0517 74.3783 40.0517C76.3409 40.0517 77.9319 38.4607 77.9319 36.4981V33.5971C78.7647 34.419 79.7657 34.9682 80.8232 35.2445V36.4981C80.8232 40.0575 77.9377 42.943 74.3783 42.943ZM77.9014 7.40751C76.5136 6.01981 74.2636 6.01981 72.8758 7.40751L70.2321 10.0512C67.2752 13.0082 67.0113 17.6384 69.4405 20.894L77.9014 12.4331C79.2892 11.0453 79.2892 8.79531 77.9014 7.40751ZM84.9711 31.5222C86.3591 30.1344 86.3591 27.8844 84.9711 26.4966L82.3277 23.8529C79.3708 20.896 74.7405 20.6321 71.4849 23.0613L79.9458 31.5222C81.3336 32.91 83.5841 32.91 84.9711 31.5222ZM65.8822 38.5923C64.4944 39.9801 62.2444 39.9801 60.8566 38.5923C59.4689 37.2045 59.4689 34.9545 60.8566 33.5667L69.3175 25.1058C71.7467 28.3614 71.4828 32.9917 68.5259 35.9486L65.8822 38.5923ZM53.7866 14.4776C52.3989 15.8654 52.3989 18.1154 53.7866 19.5032L56.4303 22.1469C59.3873 25.1038 64.0175 25.3677 67.2731 22.9385L58.8122 14.4776C57.4244 13.0899 55.1744 13.0899 53.7866 14.4776Z" fill="#3D3A2C"/>
<path d="M1.73273 16.0898H4.89333V25.911H10.3217V28.5716H1.73273V16.0898Z" fill="white"/>
<path d="M16.0603 28.8395C15.0008 28.8395 14.0722 28.649 13.2746 28.2681C12.477 27.8752 11.858 27.3395 11.4175 26.661C10.989 25.9705 10.7747 25.1789 10.7747 24.286C10.7747 23.3932 10.989 22.6075 11.4175 21.929C11.858 21.2385 12.477 20.7028 13.2746 20.3219C14.0722 19.929 15.0008 19.7326 16.0603 19.7326C17.1198 19.7326 18.0483 19.929 18.8459 20.3219C19.6435 20.7028 20.2566 21.2385 20.6851 21.929C21.1256 22.6075 21.3458 23.3932 21.3458 24.286C21.3458 25.1789 21.1256 25.9705 20.6851 26.661C20.2566 27.3395 19.6435 27.8752 18.8459 28.2681C18.0483 28.649 17.1198 28.8395 16.0603 28.8395ZM16.0603 26.3931C16.6912 26.3931 17.1912 26.2086 17.5602 25.8396C17.9412 25.4586 18.1316 24.9408 18.1316 24.286C18.1316 23.6313 17.9412 23.1194 17.5602 22.7504C17.1912 22.3694 16.6912 22.179 16.0603 22.179C15.4293 22.179 14.9234 22.3694 14.5425 22.7504C14.1734 23.1194 13.9889 23.6313 13.9889 24.286C13.9889 24.9408 14.1734 25.4586 14.5425 25.8396C14.9234 26.2086 15.4293 26.3931 16.0603 26.3931Z" fill="white"/>
<path d="M27.2492 32.6787C26.6778 32.6787 26.1004 32.6251 25.5171 32.518C24.9457 32.4108 24.4516 32.268 24.035 32.0894V29.9109C24.9754 30.3156 26.0468 30.518 27.2492 30.518C28.1182 30.518 28.7432 30.3394 29.1241 29.9823C29.517 29.6252 29.7134 29.1014 29.7134 28.4109V27.8931C29.3682 28.1907 28.9396 28.4228 28.4277 28.5895C27.9277 28.7562 27.392 28.8395 26.8206 28.8395C25.9159 28.8395 25.1183 28.649 24.4278 28.2681C23.7374 27.8871 23.1957 27.3514 22.8029 26.661C22.4219 25.9705 22.2315 25.1789 22.2315 24.286C22.2315 23.3813 22.4219 22.5837 22.8029 21.8933C23.1838 21.2028 23.7195 20.673 24.41 20.304C25.1004 19.9231 25.8921 19.7326 26.7849 19.7326C28.0111 19.7326 29.0229 20.1076 29.8205 20.8576V20.0004H32.8562V27.9824C32.8562 29.4704 32.3978 30.6252 31.4812 31.4466C30.5765 32.268 29.1658 32.6787 27.2492 32.6787ZM27.6063 26.411C28.0944 26.411 28.5289 26.286 28.9098 26.036C29.2908 25.786 29.5586 25.4527 29.7134 25.036V23.5361C29.5467 23.1194 29.2729 22.792 28.892 22.5539C28.511 22.304 28.0825 22.179 27.6063 22.179C26.9635 22.179 26.4456 22.3694 26.0528 22.7504C25.6599 23.1194 25.4635 23.6253 25.4635 24.2682C25.4635 24.9229 25.6599 25.4467 26.0528 25.8396C26.4456 26.2205 26.9635 26.411 27.6063 26.411Z" fill="white"/>
<path d="M38.939 28.8395C37.8795 28.8395 36.951 28.649 36.1534 28.2681C35.3558 27.8752 34.7367 27.3395 34.2963 26.661C33.8677 25.9705 33.6534 25.1789 33.6534 24.286C33.6534 23.3932 33.8677 22.6075 34.2963 21.929C34.7367 21.2385 35.3558 20.7028 36.1534 20.3219C36.951 19.929 37.8795 19.7326 38.939 19.7326C39.9985 19.7326 40.927 19.929 41.7246 20.3219C42.5222 20.7028 43.1353 21.2385 43.5639 21.929C44.0043 22.6075 44.2246 23.3932 44.2246 24.286C44.2246 25.1789 44.0043 25.9705 43.5639 26.661C43.1353 27.3395 42.5222 27.8752 41.7246 28.2681C40.927 28.649 39.9985 28.8395 38.939 28.8395ZM38.939 26.3931C39.5699 26.3931 40.0699 26.2086 40.439 25.8396C40.8199 25.4586 41.0104 24.9408 41.0104 24.286C41.0104 23.6313 40.8199 23.1194 40.439 22.7504C40.0699 22.3694 39.5699 22.179 38.939 22.179C38.3081 22.179 37.8021 22.3694 37.4212 22.7504C37.0521 23.1194 36.8676 23.6313 36.8676 24.286C36.8676 24.9408 37.0521 25.4586 37.4212 25.8396C37.8021 26.2086 38.3081 26.3931 38.939 26.3931Z" fill="white"/>
<path d="M94.632 16.0898H97.793V28.5716H94.632V16.0898Z" fill="white"/>
<path d="M99.3931 20.0004H102.429V20.8576C103.226 20.1076 104.238 19.7326 105.464 19.7326C106.357 19.7326 107.149 19.9231 107.839 20.304C108.53 20.673 109.065 21.2028 109.446 21.8933C109.827 22.5718 110.018 23.3635 110.018 24.2682C110.018 25.161 109.827 25.9586 109.446 26.661C109.065 27.3514 108.53 27.8871 107.839 28.2681C107.161 28.649 106.369 28.8395 105.464 28.8395C104.893 28.8395 104.345 28.7502 103.822 28.5716C103.31 28.405 102.881 28.1728 102.536 27.8752V32.4822H99.3931V20.0004ZM104.643 26.3931C105.286 26.3931 105.804 26.2027 106.196 25.8217C106.589 25.4408 106.786 24.9229 106.786 24.2682C106.786 23.6134 106.589 23.1016 106.196 22.7325C105.804 22.3516 105.286 22.1611 104.643 22.1611C104.167 22.1611 103.738 22.2861 103.357 22.5361C102.976 22.7742 102.703 23.1016 102.536 23.5182V25.036C102.703 25.4527 102.976 25.786 103.357 26.036C103.738 26.2741 104.167 26.3931 104.643 26.3931Z" fill="white"/>
<path d="M114.703 28.8395C114.013 28.8395 113.293 28.7681 112.543 28.6252C111.793 28.4943 111.197 28.3038 110.757 28.0538V25.7503C111.245 26.036 111.828 26.2741 112.507 26.4646C113.197 26.6431 113.828 26.7324 114.4 26.7324C114.816 26.7324 115.12 26.7026 115.31 26.6431C115.501 26.5836 115.596 26.4646 115.596 26.286C115.596 26.1431 115.531 26.03 115.4 25.9467C115.281 25.8515 115.054 25.7562 114.721 25.661C114.4 25.5539 114.025 25.4408 113.596 25.3217C112.87 25.1074 112.299 24.8872 111.882 24.661C111.465 24.4348 111.156 24.1491 110.953 23.8039C110.751 23.4587 110.65 23.0242 110.65 22.5004C110.65 21.5718 111.013 20.8814 111.739 20.429C112.477 19.9647 113.483 19.7326 114.757 19.7326C115.376 19.7326 116.025 19.7981 116.703 19.929C117.394 20.06 117.911 20.2326 118.257 20.4469V22.7147C117.9 22.4766 117.423 22.2801 116.828 22.1254C116.245 21.9706 115.697 21.8933 115.185 21.8933C114.781 21.8933 114.465 21.9349 114.239 22.0182C114.013 22.0897 113.9 22.2206 113.9 22.4111C113.9 22.5897 114.013 22.7266 114.239 22.8218C114.465 22.917 114.87 23.0361 115.453 23.1789C115.834 23.2742 115.995 23.3158 115.935 23.3039C116.697 23.5063 117.286 23.7325 117.703 23.9825C118.12 24.2325 118.411 24.5301 118.578 24.8753C118.757 25.2086 118.846 25.6372 118.846 26.161C118.846 26.9824 118.489 27.6371 117.775 28.1252C117.072 28.6014 116.048 28.8395 114.703 28.8395Z" fill="white"/>
<path d="M123.538 28.8395C122.36 28.8395 121.473 28.5121 120.878 27.8574C120.295 27.2026 120.003 26.3396 120.003 25.2682V20.0004H123.146V24.911C123.146 25.8991 123.592 26.3931 124.485 26.3931C124.89 26.3931 125.259 26.2979 125.592 26.1074C125.925 25.9169 126.199 25.6372 126.413 25.2682V20.0004H129.556V28.5716H126.521V27.6431C126.152 28.0359 125.705 28.3335 125.181 28.5359C124.658 28.7383 124.11 28.8395 123.538 28.8395Z" fill="white"/>
<path d="M131.165 20.0004H134.076V20.929C134.433 20.5481 134.844 20.2564 135.308 20.054C135.772 19.8397 136.266 19.7326 136.79 19.7326C137.433 19.7326 137.945 19.8278 138.326 20.0183C138.719 20.2088 139.034 20.4945 139.272 20.8754C139.629 20.5183 140.064 20.2385 140.576 20.0362C141.088 19.8338 141.606 19.7326 142.129 19.7326C143.26 19.7326 144.064 20.0243 144.54 20.6076C145.016 21.179 145.254 22.0063 145.254 23.0896V28.5716H142.254V23.5361C142.254 23.0599 142.165 22.7147 141.986 22.5004C141.808 22.2861 141.51 22.179 141.094 22.179C140.558 22.179 140.123 22.3694 139.79 22.7504C139.802 22.9527 139.808 23.2623 139.808 23.6789V28.5716H136.808V23.4111C136.808 22.9706 136.731 22.6551 136.576 22.4647C136.421 22.2742 136.147 22.179 135.755 22.179C135.147 22.179 134.624 22.5182 134.183 23.1968V28.5716H131.165V20.0004Z" fill="white"/>
</svg>
