<svg width="141" height="30" viewBox="0 0 141 30" fill="none" xmlns="http://www.w3.org/2000/svg">
<path d="M23.019 13.371C22.64 13.7523 22.3498 14.2125 22.169 14.7187C21.9882 15.225 21.9213 15.7649 21.973 16.3L21.955 16.282C22.0082 16.9119 21.9232 17.5457 21.7061 18.1394C21.489 18.733 21.145 19.2721 20.6981 19.7191C20.2511 20.166 19.712 20.5101 19.1183 20.7271C18.5247 20.9442 17.8908 21.0292 17.261 20.976L17.279 20.994C16.5256 20.9239 15.7689 21.0878 15.112 21.4635C14.4552 21.8392 13.9302 22.4083 13.6087 23.0933C13.2872 23.7783 13.1847 24.5457 13.3153 25.2911C13.446 26.0364 13.8033 26.7233 14.3386 27.2581C14.8739 27.7929 15.5611 28.1496 16.3065 28.2795C17.052 28.4095 17.8193 28.3063 18.504 27.9842C19.1887 27.662 19.7573 27.1366 20.1324 26.4794C20.5075 25.8222 20.6708 25.0654 20.6 24.312L20.619 24.33C20.5658 23.7002 20.6507 23.0663 20.8678 22.4726C21.0849 21.879 21.429 21.3399 21.8759 20.8929C22.3229 20.446 22.862 20.1019 23.4556 19.8849C24.0493 19.6678 24.6831 19.5828 25.313 19.636L25.294 19.618C25.9094 19.6733 26.5289 19.5724 27.095 19.3246C27.661 19.0768 28.1554 18.6901 28.5322 18.2004C28.909 17.7107 29.1562 17.1337 29.2506 16.5231C29.3451 15.9124 29.2839 15.2878 29.0727 14.707C28.8615 14.1263 28.5071 13.6083 28.0424 13.201C27.5777 12.7937 27.0177 12.5103 26.4143 12.3771C25.8109 12.2439 25.1836 12.2651 24.5906 12.4388C23.9976 12.6126 23.4581 12.9332 23.022 13.371H23.019Z" fill="white"/>
<path d="M15.642 18.636L15.623 18.618C16.1583 18.6719 16.6989 18.6062 17.2058 18.4256C17.7126 18.245 18.173 17.9541 18.5536 17.5738C18.9341 17.1935 19.2255 16.7333 19.4064 16.2266C19.5874 15.7199 19.6535 15.1794 19.6 14.644L19.619 14.662C19.5658 14.0321 19.6508 13.3983 19.8678 12.8046C20.0849 12.211 20.429 11.6719 20.8759 11.2249C21.3229 10.778 21.862 10.4339 22.4556 10.2169C23.0493 9.99976 23.6831 9.91483 24.313 9.968L24.294 9.95C25.0475 10.0208 25.8044 9.85736 26.4616 9.4821C27.1189 9.10684 27.6443 8.53797 27.9663 7.8531C28.2883 7.16824 28.3912 6.40071 28.261 5.6552C28.1308 4.90969 27.7738 4.22251 27.2386 3.68737C26.7035 3.15224 26.0163 2.7952 25.2708 2.66498C24.5253 2.53475 23.7578 2.63766 23.0729 2.95968C22.388 3.28169 21.8192 3.80714 21.4439 4.46435C21.0686 5.12155 20.9052 5.87852 20.976 6.632L20.958 6.613C21.0113 7.24289 20.9265 7.87683 20.7095 8.47055C20.4925 9.06427 20.1484 9.60346 19.7015 10.0505C19.2545 10.4974 18.7153 10.8415 18.1216 11.0585C17.5278 11.2755 16.8939 11.3603 16.264 11.307L16.282 11.326C15.7467 11.2721 15.206 11.3378 14.6992 11.5184C14.1924 11.6989 13.732 11.9899 13.3514 12.3702C12.9708 12.7505 12.6795 13.2107 12.4985 13.7174C12.3176 14.2241 12.2515 14.7646 12.305 15.3L12.287 15.282C12.34 15.9118 12.2549 16.5456 12.0378 17.1392C11.8206 17.7327 11.4766 18.2718 11.0297 18.7187C10.5828 19.1656 10.0437 19.5096 9.45017 19.7268C8.85661 19.9439 8.22282 20.029 7.59301 19.976L7.61101 19.994C6.85753 19.9232 6.10056 20.0866 5.44335 20.4619C4.78615 20.8372 4.2607 21.406 3.93869 22.0909C3.61667 22.7758 3.51375 23.5433 3.64398 24.2888C3.77421 25.0343 4.13125 25.7215 4.66638 26.2566C5.20152 26.7918 5.8887 27.1488 6.63421 27.279C7.37972 27.4092 8.14725 27.3063 8.83212 26.9843C9.51698 26.6623 10.0858 26.1369 10.4611 25.4797C10.8364 24.8224 10.9998 24.0655 10.929 23.312L10.948 23.33C10.8948 22.7001 10.9798 22.0663 11.1969 21.4726C11.4139 20.879 11.758 20.3399 12.2049 19.8929C12.6519 19.446 13.191 19.1019 13.7846 18.8849C14.3783 18.6678 15.0121 18.5828 15.642 18.636Z" fill="white"/>
<path d="M8.94 16.629C9.31902 16.2478 9.6092 15.7876 9.78984 15.2813C9.97048 14.775 10.0371 14.235 9.985 13.7L10.004 13.718C9.95079 13.088 10.0358 12.4539 10.253 11.8601C10.4702 11.2663 10.8144 10.7271 11.2616 10.2801C11.7088 9.83312 12.2481 9.48913 12.842 9.27218C13.4359 9.05522 14.07 8.97052 14.7 9.024L14.681 9.006C15.4342 9.07657 16.1909 8.91308 16.8478 8.53784C17.5047 8.16261 18.0298 7.59388 18.3517 6.90923C18.6735 6.22457 18.7763 5.45732 18.6461 4.71209C18.5159 3.96686 18.1589 3.27994 17.624 2.745C17.0891 2.21006 16.4021 1.85314 15.6569 1.72292C14.9117 1.59269 14.1444 1.69551 13.4598 2.01733C12.7751 2.33915 12.2064 2.86432 11.8312 3.52122C11.4559 4.17812 11.2924 4.93478 11.363 5.688L11.345 5.67C11.3982 6.29985 11.3132 6.93372 11.0961 7.52736C10.879 8.121 10.535 8.66011 10.0881 9.10707C9.64111 9.55403 9.10199 9.89806 8.50835 10.1151C7.91471 10.3322 7.28085 10.4172 6.651 10.364L6.669 10.382C6.05357 10.3268 5.43416 10.4279 4.86818 10.6758C4.3022 10.9237 3.80795 11.3105 3.43124 11.8003C3.05453 12.29 2.80755 12.867 2.71317 13.4776C2.6188 14.0883 2.68009 14.7129 2.89136 15.2935C3.10263 15.8742 3.45706 16.3921 3.92179 16.7993C4.38652 17.2066 4.94652 17.4899 5.5499 17.6231C6.15327 17.7562 6.7805 17.7349 7.37347 17.5612C7.96643 17.3874 8.50593 17.0668 8.94199 16.629H8.94Z" fill="white"/>
<path d="M39.917 6.65503H42.887V21.108H39.917V6.65503Z" fill="white"/>
<path d="M44.569 16.159C44.5649 15.1204 44.8691 14.1038 45.4431 13.2382C46.0171 12.3726 46.8351 11.6968 47.7935 11.2965C48.7519 10.8961 49.8075 10.7892 50.8267 10.9893C51.8459 11.1894 52.7828 11.6874 53.5187 12.4204C54.2546 13.1533 54.7564 14.0882 54.9606 15.1066C55.1648 16.125 55.0621 17.1811 54.6656 18.1411C54.2691 19.101 53.5966 19.9218 52.7333 20.4992C51.8699 21.0767 50.8547 21.385 49.816 21.385C49.1266 21.3929 48.4425 21.2632 47.8037 21.0036C47.1649 20.744 46.5843 20.3597 46.0958 19.8732C45.6072 19.3866 45.2206 18.8075 44.9585 18.1698C44.6963 17.5321 44.5639 16.8485 44.569 16.159ZM52.093 16.159C52.0806 15.7113 51.9365 15.2772 51.6788 14.9109C51.421 14.5447 51.061 14.2625 50.6438 14.0998C50.2265 13.937 49.7706 13.9008 49.3329 13.9958C48.8952 14.0908 48.4952 14.3126 48.1829 14.6337C47.8707 14.9547 47.6599 15.3607 47.5772 15.8009C47.4944 16.241 47.5431 16.6958 47.7174 17.1084C47.8917 17.521 48.1837 17.873 48.5569 18.1205C48.9302 18.368 49.3682 18.5 49.816 18.5C50.1227 18.5082 50.4278 18.4527 50.7121 18.3371C50.9963 18.2215 51.2535 18.0483 51.4674 17.8284C51.6813 17.6084 51.8474 17.3465 51.955 17.0592C52.0627 16.7719 52.1097 16.4654 52.093 16.159Z" fill="white"/>
<path d="M66.9 11.209V20.609C66.9 23.935 64.306 25.341 61.673 25.341C60.746 25.4104 59.8177 25.2231 58.99 24.7998C58.1624 24.3764 57.4673 23.7333 56.981 22.941L59.515 21.476C59.7194 21.889 60.0451 22.2297 60.4484 22.4526C60.8518 22.6754 61.3136 22.7698 61.772 22.723C62.065 22.7636 62.3634 22.7378 62.6451 22.6475C62.9267 22.5572 63.1845 22.4047 63.3993 22.2014C63.6141 21.998 63.7804 21.749 63.886 21.4726C63.9915 21.1963 64.0335 20.8998 64.009 20.605V19.7C63.6612 20.1255 63.2186 20.4636 62.7165 20.6871C62.2144 20.9106 61.667 21.0133 61.118 20.987C59.8118 20.9458 58.5729 20.398 57.6635 19.4594C56.7541 18.5209 56.2456 17.2653 56.2456 15.9585C56.2456 14.6517 56.7541 13.3961 57.6635 12.4576C58.5729 11.519 59.8118 10.9712 61.118 10.93C61.667 10.9037 62.2144 11.0064 62.7165 11.2299C63.2186 11.4534 63.6612 11.7915 64.009 12.217V11.207L66.9 11.209ZM64.01 15.96C64.03 15.4814 63.9062 15.0077 63.6547 14.6C63.4032 14.1922 63.0354 13.8691 62.5987 13.6722C62.162 13.4752 61.6764 13.4135 61.2043 13.4949C60.7322 13.5763 60.2953 13.7971 59.9497 14.129C59.6042 14.4608 59.3659 14.8884 59.2654 15.3568C59.165 15.8252 59.207 16.313 59.3862 16.7573C59.5653 17.2016 59.8733 17.5822 60.2705 17.85C60.6677 18.1178 61.136 18.2606 61.615 18.26C61.9271 18.2818 62.2402 18.238 62.5343 18.1314C62.8284 18.0248 63.0969 17.8577 63.3225 17.6411C63.5481 17.4244 63.7259 17.1629 63.8443 16.8733C63.9627 16.5838 64.0192 16.2727 64.01 15.96Z" fill="white"/>
<path d="M68.582 16.159C68.5779 15.1204 68.882 14.1038 69.4561 13.2382C70.0301 12.3726 70.8481 11.6968 71.8065 11.2965C72.7649 10.8961 73.8205 10.7892 74.8397 10.9893C75.8589 11.1894 76.7958 11.6874 77.5317 12.4204C78.2676 13.1533 78.7694 14.0882 78.9736 15.1066C79.1778 16.125 79.0751 17.1811 78.6786 18.1411C78.2821 19.101 77.6096 19.9218 76.7463 20.4992C75.8829 21.0767 74.8677 21.385 73.829 21.385C73.1396 21.3929 72.4554 21.2632 71.8167 21.0036C71.1779 20.744 70.5973 20.3597 70.1088 19.8732C69.6202 19.3866 69.2336 18.8075 68.9715 18.1698C68.7093 17.5321 68.5769 16.8485 68.582 16.159ZM76.106 16.159C76.0936 15.7113 75.9495 15.2772 75.6918 14.9109C75.434 14.5447 75.074 14.2625 74.6568 14.0998C74.2395 13.937 73.7835 13.9008 73.3459 13.9958C72.9082 14.0908 72.5082 14.3126 72.1959 14.6337C71.8837 14.9547 71.6729 15.3607 71.5901 15.8009C71.5073 16.241 71.5561 16.6958 71.7304 17.1084C71.9047 17.521 72.1967 17.873 72.5699 18.1205C72.9432 18.368 73.3811 18.5 73.829 18.5C74.1357 18.5082 74.4408 18.4527 74.725 18.3371C75.0093 18.2215 75.2665 18.0483 75.4804 17.8284C75.6943 17.6084 75.8604 17.3465 75.968 17.0592C76.0757 16.7719 76.1227 16.4654 76.106 16.159Z" fill="white"/>
<path d="M80.461 8.55599C80.461 8.20354 80.5655 7.85901 80.7613 7.56597C80.9571 7.27292 81.2355 7.04451 81.5611 6.90964C81.8867 6.77476 82.245 6.73947 82.5907 6.80823C82.9363 6.87699 83.2539 7.04671 83.5031 7.29593C83.7523 7.54514 83.922 7.86266 83.9908 8.20834C84.0595 8.55401 84.0242 8.91231 83.8894 9.23793C83.7545 9.56355 83.5261 9.84186 83.233 10.0377C82.94 10.2335 82.5955 10.338 82.243 10.338C81.7719 10.3333 81.3213 10.1441 80.9881 9.81087C80.655 9.47769 80.4657 9.02715 80.461 8.55599ZM80.761 11.209H83.732V21.109H80.757L80.761 11.209Z" fill="white"/>
<path d="M96.556 16.159C96.5903 16.8133 96.495 17.4679 96.2754 18.0852C96.0559 18.7025 95.7165 19.2703 95.2767 19.756C94.837 20.2416 94.3055 20.6356 93.713 20.9152C93.1204 21.1947 92.4785 21.3544 91.824 21.385C91.2736 21.415 90.7235 21.3222 90.2134 21.1133C89.7033 20.9043 89.2462 20.5845 88.875 20.177V25.068H85.905V11.209H88.875V12.139C89.2463 11.7318 89.7036 11.4122 90.2136 11.2035C90.7237 10.9947 91.2737 10.902 91.824 10.932C92.4786 10.9625 93.1207 11.1221 93.7134 11.4017C94.3061 11.6813 94.8376 12.0753 95.2774 12.5611C95.7172 13.0469 96.0566 13.6149 96.276 14.2324C96.4954 14.8498 96.5906 15.5046 96.556 16.159ZM93.586 16.159C93.5744 15.6957 93.4264 15.2461 93.1605 14.8664C92.8946 14.4868 92.5227 14.194 92.0913 14.0248C91.6598 13.8555 91.188 13.8172 90.7349 13.9148C90.2818 14.0123 89.8676 14.2413 89.544 14.5731C89.2204 14.905 89.0019 15.3248 88.9158 15.7803C88.8297 16.2357 88.8798 16.7063 89.0599 17.1334C89.2399 17.5605 89.542 17.9249 89.9282 18.1812C90.3144 18.4374 90.7675 18.5741 91.231 18.574C91.5492 18.5882 91.8668 18.5349 92.163 18.4177C92.4591 18.3006 92.7272 18.1221 92.9495 17.8941C93.1719 17.666 93.3435 17.3936 93.4532 17.0946C93.5629 16.7956 93.6082 16.4767 93.586 16.159Z" fill="white"/>
<path d="M105.721 18.138C105.721 20.415 103.742 21.385 101.604 21.385C100.74 21.4632 99.8727 21.2806 99.1138 20.8605C98.3549 20.4405 97.7395 19.8025 97.347 19.029L99.92 17.564C100.024 17.9215 100.248 18.2326 100.553 18.4451C100.859 18.6577 101.229 18.759 101.6 18.732C102.312 18.732 102.669 18.514 102.669 18.119C102.669 17.029 97.798 17.604 97.798 14.179C97.798 12.02 99.62 10.932 101.679 10.932C102.453 10.9075 103.219 11.0911 103.898 11.4636C104.577 11.8362 105.144 12.384 105.539 13.05L103.005 14.416C102.894 14.1567 102.709 13.9358 102.473 13.7809C102.237 13.626 101.961 13.544 101.679 13.545C101.164 13.545 100.847 13.745 100.847 14.099C100.851 15.228 105.721 14.475 105.721 18.138Z" fill="white"/>
<path d="M116.57 11.209V21.109H113.6V20.178C113.257 20.5888 112.822 20.9125 112.33 21.1225C111.838 21.3325 111.304 21.4228 110.77 21.386C108.77 21.386 107.07 19.961 107.07 17.286V11.209H110.04V16.851C110.015 17.0868 110.042 17.3252 110.119 17.5495C110.195 17.7739 110.32 17.9789 110.484 18.1502C110.648 18.3215 110.847 18.455 111.068 18.5415C111.288 18.628 111.525 18.6654 111.762 18.651C112.851 18.651 113.603 18.018 113.603 16.612V11.212L116.57 11.209Z" fill="white"/>
<path d="M133.6 15.03V21.108H130.63V15.287C130.63 14.297 130.155 13.664 129.205 13.664C128.215 13.664 127.66 14.357 127.66 15.525V21.108H124.691V15.287C124.691 14.297 124.216 13.664 123.265 13.664C122.275 13.664 121.721 14.357 121.721 15.525V21.108H118.751V11.208H121.721V12.118C122.029 11.7143 122.433 11.3941 122.896 11.1868C123.36 10.9794 123.868 10.8915 124.374 10.931C124.882 10.9061 125.388 11.0134 125.843 11.2423C126.297 11.4711 126.684 11.8139 126.967 12.237C127.296 11.7943 127.732 11.4423 128.234 11.2139C128.736 10.9855 129.288 10.8882 129.838 10.931C132.111 10.932 133.6 12.555 133.6 15.03Z" fill="white"/>
<path d="M136.112 11.148C137.329 11.148 138.316 10.1612 138.316 8.94399C138.316 7.72675 137.329 6.73999 136.112 6.73999C134.895 6.73999 133.908 7.72675 133.908 8.94399C133.908 10.1612 134.895 11.148 136.112 11.148Z" fill="white"/>
</svg>
