<svg width="169" height="42" viewBox="0 0 169 42" fill="none" xmlns="http://www.w3.org/2000/svg">
<g clip-path="url(#clip0_1_79)">
<path d="M50.0775 29.4524H62.0295V25.8524H54.3255V12.2924H50.0775V29.4524Z" fill="white"/>
<path d="M69.1107 27.0524C67.4067 27.0524 66.5187 25.5644 66.5187 23.3324C66.5187 21.1004 67.4067 19.5884 69.1107 19.5884C70.8147 19.5884 71.7267 21.1004 71.7267 23.3324C71.7267 25.5644 70.8147 27.0524 69.1107 27.0524ZM69.1347 29.8364C73.0947 29.8364 75.6867 27.0284 75.6867 23.3324C75.6867 19.6364 73.0947 16.8284 69.1347 16.8284C65.1987 16.8284 62.5587 19.6364 62.5587 23.3324C62.5587 27.0284 65.1987 29.8364 69.1347 29.8364Z" fill="white"/>
<path d="M82.5411 33.7004C84.3651 33.7004 85.9731 33.2924 87.0531 32.3324C88.0371 31.4444 88.6851 30.1004 88.6851 28.2524V17.1644H84.9411V18.4844H84.8931C84.1731 17.4524 83.0691 16.8044 81.4371 16.8044C78.3891 16.8044 76.2771 19.3484 76.2771 22.9484C76.2771 26.7164 78.8451 28.7804 81.6051 28.7804C83.0931 28.7804 84.0291 28.1804 84.7491 27.3644H84.8451V28.5884C84.8451 30.0764 84.1491 30.9404 82.4931 30.9404C81.1971 30.9404 80.5491 30.3884 80.3331 29.7404H76.5411C76.9251 32.3084 79.1571 33.7004 82.5411 33.7004ZM82.5171 25.8764C81.0531 25.8764 80.0931 24.6764 80.0931 22.8284C80.0931 20.9564 81.0531 19.7564 82.5171 19.7564C84.1491 19.7564 85.0131 21.1484 85.0131 22.8044C85.0131 24.5324 84.2211 25.8764 82.5171 25.8764Z" fill="white"/>
<path d="M96.3835 27.0524C94.6795 27.0524 93.7915 25.5644 93.7915 23.3324C93.7915 21.1004 94.6795 19.5884 96.3835 19.5884C98.0875 19.5884 98.9995 21.1004 98.9995 23.3324C98.9995 25.5644 98.0875 27.0524 96.3835 27.0524ZM96.4075 29.8364C100.368 29.8364 102.959 27.0284 102.959 23.3324C102.959 19.6364 100.368 16.8284 96.4075 16.8284C92.4715 16.8284 89.8315 19.6364 89.8315 23.3324C89.8315 27.0284 92.4715 29.8364 96.4075 29.8364Z" fill="white"/>
<path d="M104.102 29.4524H108.014V17.1644H104.102V29.4524ZM104.102 15.4604H108.014V12.2924H104.102V15.4604Z" fill="white"/>
<path d="M109.711 33.5084H113.623V28.1804H113.671C114.439 29.2124 115.567 29.8364 117.151 29.8364C120.367 29.8364 122.503 27.2924 122.503 23.3084C122.503 19.6124 120.511 16.8044 117.247 16.8044C115.567 16.8044 114.367 17.5484 113.527 18.6524H113.455V17.1644H109.711V33.5084ZM116.143 26.8124C114.463 26.8124 113.503 25.4444 113.503 23.4524C113.503 21.4604 114.367 19.9484 116.071 19.9484C117.751 19.9484 118.543 21.3404 118.543 23.4524C118.543 25.5404 117.631 26.8124 116.143 26.8124Z" fill="white"/>
<path d="M128.872 29.8364C132.088 29.8364 134.464 28.4444 134.464 25.7564C134.464 22.6124 131.92 22.0604 129.76 21.7004C128.2 21.4124 126.808 21.2924 126.808 20.4284C126.808 19.6604 127.552 19.3004 128.512 19.3004C129.592 19.3004 130.336 19.6364 130.48 20.7404H134.08C133.888 18.3164 132.016 16.8044 128.536 16.8044C125.632 16.8044 123.232 18.1484 123.232 20.7404C123.232 23.6204 125.512 24.1964 127.648 24.5564C129.28 24.8444 130.768 24.9644 130.768 26.0684C130.768 26.8604 130.024 27.2924 128.848 27.2924C127.552 27.2924 126.736 26.6924 126.592 25.4684H122.896C123.016 28.1804 125.272 29.8364 128.872 29.8364Z" fill="white"/>
<path d="M139.778 29.8124C141.482 29.8124 142.562 29.1404 143.45 27.9404H143.522V29.4524H147.266V17.1644H143.354V24.0284C143.354 25.4924 142.538 26.5004 141.194 26.5004C139.946 26.5004 139.346 25.7564 139.346 24.4124V17.1644H135.458V25.2284C135.458 27.9644 136.946 29.8124 139.778 29.8124Z" fill="white"/>
<path d="M148.968 29.4524H152.88V22.5644C152.88 21.1004 153.6 20.0684 154.824 20.0684C156 20.0684 156.552 20.8364 156.552 22.1564V29.4524H160.464V22.5644C160.464 21.1004 161.16 20.0684 162.408 20.0684C163.584 20.0684 164.136 20.8364 164.136 22.1564V29.4524H168.048V21.4604C168.048 18.7004 166.656 16.8044 163.872 16.8044C162.288 16.8044 160.968 17.4764 160.008 18.9644H159.96C159.336 17.6444 158.112 16.8044 156.504 16.8044C154.728 16.8044 153.552 17.6444 152.784 18.9164H152.712V17.1644H148.968V29.4524Z" fill="white"/>
<path d="M26.2099 2.47689L22.2769 1.42303L18.9625 13.7926L15.9702 2.62527L12.0371 3.67913L15.2701 15.7446L7.21746 7.69201L4.33827 10.5712L13.171 19.404L2.17124 16.4566L1.11739 20.3896L13.136 23.61C12.9984 23.0165 12.9256 22.3981 12.9256 21.7627C12.9256 17.2651 16.5716 13.6191 21.0692 13.6191C25.5668 13.6191 29.2128 17.2651 29.2128 21.7627C29.2128 22.394 29.1409 23.0086 29.005 23.5986L39.9277 26.5253L40.9815 22.5923L28.9151 19.3591L39.9156 16.4115L38.8617 12.4785L26.7958 15.7115L34.8484 7.65895L31.9692 4.77976L23.259 13.49L26.2099 2.47689Z" fill="#F97316"/>
<path d="M28.9943 23.6444C28.6571 25.07 27.9452 26.3507 26.9684 27.3768L34.8814 35.2899L37.7606 32.4107L28.9943 23.6444Z" fill="#F97316"/>
<path d="M26.8884 27.4596C25.8998 28.4693 24.6505 29.2228 23.2495 29.6111L26.1289 40.3571L30.0619 39.3032L26.8884 27.4596Z" fill="#F97316"/>
<path d="M23.1026 29.6504C22.4526 29.8175 21.7713 29.9063 21.0692 29.9063C20.317 29.9063 19.5886 29.8043 18.8971 29.6134L16.0151 40.3692L19.9481 41.423L23.1026 29.6504Z" fill="#F97316"/>
<path d="M18.7581 29.5737C17.3785 29.1661 16.1514 28.403 15.183 27.3904L7.25052 35.3229L10.1297 38.2021L18.7581 29.5737Z" fill="#F97316"/>
<path d="M15.1168 27.3203C14.165 26.3013 13.4717 25.0377 13.1417 23.6341L2.18335 26.5704L3.2372 30.5034L15.1168 27.3203Z" fill="#F97316"/>
</g>
<defs>
<clipPath id="clip0_1_79">
<rect width="168" height="41" fill="white" transform="translate(0.800003 0.5)"/>
</clipPath>
</defs>
</svg>
