<svg width="187" height="42" viewBox="0 0 187 42" fill="none" xmlns="http://www.w3.org/2000/svg">
<g clip-path="url(#clip0_1_111)">
<path fill-rule="evenodd" clip-rule="evenodd" d="M59.4373 3.22867C59.4373 1.83928 60.5759 0.712952 61.9806 0.712952H66.4112C67.4109 0.712952 68.3798 1.05565 69.1528 1.68271L70.5006 2.77599L70.5343 2.8064C70.5654 2.79602 70.5965 2.78588 70.6277 2.77599C73.0593 2.0056 76.0095 1.85909 79.0206 1.85909C82.0317 1.85909 84.9819 2.0056 87.4135 2.77599C87.4447 2.78588 87.4758 2.79602 87.5069 2.8064L87.5406 2.77599L88.8884 1.68271C89.6614 1.05565 90.6303 0.712952 91.63 0.712952H96.0606C97.4653 0.712952 98.6039 1.83928 98.6039 3.22867V4.78385C98.6039 5.9871 98.0915 7.13469 97.1923 7.94509L96.105 8.92508C95.5742 9.4035 94.9371 9.75168 94.2451 9.9415L93.9879 10.0121C94.9954 12.39 95.552 14.9318 95.552 16.988C95.552 25.2594 90.3781 28.8317 85.8193 31.9793C82.2292 34.4581 79.0206 36.6734 79.0206 40.713C79.0206 36.6734 75.812 34.4581 72.2219 31.9793C67.6631 28.8317 62.4892 25.2594 62.4892 16.988C62.4892 14.9318 63.0458 12.39 64.0533 10.0121L63.7961 9.9415C63.1041 9.75168 62.467 9.4035 61.9362 8.92508L60.8489 7.94509C59.9497 7.13469 59.4373 5.9871 59.4373 4.78385V3.22867ZM82.3269 23.7502C82.3269 24.1454 82.1527 24.5243 81.8427 24.8038C81.5327 25.0832 81.1122 25.2402 80.6737 25.2402C80.2952 25.2402 79.93 25.1231 79.6378 24.9113C80.1352 26.2283 81.4081 27.4762 83.3442 25.4694C85.0534 23.6047 83.2682 19.6718 81.529 17.338C80.9493 16.5601 79.9976 16.1857 79.0206 16.1857C78.0436 16.1857 77.0919 16.5601 76.5122 17.338C74.773 19.6718 72.9878 23.6047 74.697 25.4694C76.6331 27.4762 77.906 26.2283 78.4034 24.9113C78.1112 25.1231 77.746 25.2402 77.3675 25.2402C76.929 25.2402 76.5085 25.0832 76.1985 24.8038C75.8885 24.5243 75.7143 24.1454 75.7143 23.7502H82.3269ZM72.6899 12.1081H68.0845L71.714 14.9828C72.5127 15.6153 73.6801 15.4131 74.1743 14.5566C74.7983 13.4752 73.9695 12.1081 72.6899 12.1081ZM85.3513 12.1081H89.9567L86.3272 14.9828C85.5285 15.6153 84.3611 15.4131 83.8669 14.5566C83.2429 13.4752 84.0717 12.1081 85.3513 12.1081Z" fill="#72B800"/>
<path d="M104.09 29.0463H108.17V13.6563H104.09V29.0463ZM104.09 11.2563H108.17V7.59631H104.09V11.2563Z" fill="white"/>
<path d="M110.799 34.0863H114.879V27.3063H114.939C115.809 28.6263 117.219 29.4963 119.379 29.4963C123.339 29.4963 126.039 26.3463 126.039 21.3663C126.039 16.5663 123.429 13.2363 119.349 13.2363C117.249 13.2363 115.809 14.2263 114.819 15.5763H114.729V13.6563H110.799V34.0863ZM118.509 26.1063C116.079 26.1063 114.789 24.2763 114.789 21.4863C114.789 18.7263 115.809 16.5363 118.359 16.5363C120.879 16.5363 121.899 18.5763 121.899 21.4863C121.899 24.3963 120.579 26.1063 118.509 26.1063Z" fill="white"/>
<path d="M134.178 29.4963C138.018 29.4963 140.658 27.6363 140.658 24.5463C140.658 20.9463 137.808 20.2263 135.228 19.6863C133.038 19.2363 130.998 19.1163 130.998 17.7963C130.998 16.6863 132.048 16.0863 133.638 16.0863C135.378 16.0863 136.428 16.6863 136.608 18.3363H140.298C139.998 15.2463 137.748 13.2363 133.698 13.2363C130.188 13.2363 127.428 14.8263 127.428 18.1563C127.428 21.5163 130.128 22.2663 132.888 22.8063C134.988 23.2263 136.938 23.3763 136.938 24.8463C136.938 25.9263 135.918 26.6163 134.118 26.6163C132.288 26.6163 131.028 25.8363 130.758 24.0663H126.978C127.218 27.3363 129.708 29.4963 134.178 29.4963Z" fill="white"/>
<path d="M156.149 29.0463V13.6563H152.069V22.5363C152.069 24.5763 150.899 26.0163 148.979 26.0163C147.239 26.0163 146.429 25.0263 146.429 23.2263V13.6563H142.379V23.9163C142.379 27.2763 144.299 29.4663 147.719 29.4663C149.879 29.4663 151.079 28.6563 152.129 27.2463H152.219V29.0463H156.149Z" fill="white"/>
<path d="M158.788 29.0463H162.868V20.1063C162.868 18.0663 163.978 16.7463 165.628 16.7463C167.128 16.7463 167.998 17.6463 167.998 19.3863V29.0463H172.078V20.1063C172.078 18.0663 173.128 16.7463 174.838 16.7463C176.338 16.7463 177.208 17.6463 177.208 19.3863V29.0463H181.288V18.6963C181.288 15.3363 179.458 13.2363 176.218 13.2363C174.268 13.2363 172.648 14.2563 171.598 15.9363H171.538C170.788 14.3163 169.228 13.2363 167.278 13.2363C165.148 13.2363 163.648 14.3163 162.808 15.7263H162.718V13.6563H158.788V29.0463Z" fill="white"/>
<path d="M1.08411 29.0463H5.1641V7.59631H1.08411V29.0463Z" fill="white"/>
<path d="M15.1403 29.4963C19.9103 29.4963 23.1803 25.9563 23.1803 21.3663C23.1803 16.7763 19.9103 13.2363 15.1403 13.2363C10.3703 13.2363 7.10028 16.7763 7.10028 21.3663C7.10028 25.9563 10.3703 29.4963 15.1403 29.4963ZM15.1403 26.3763C12.6203 26.3763 11.2403 24.3663 11.2403 21.3663C11.2403 18.3663 12.6203 16.3263 15.1403 16.3263C17.6303 16.3263 19.0403 18.3663 19.0403 21.3663C19.0403 24.3663 17.6303 26.3763 15.1403 26.3763Z" fill="white"/>
<path d="M31.8568 34.2963C34.1368 34.2963 36.1168 33.7563 37.4068 32.5563C38.5468 31.5063 39.2368 30.0363 39.2368 27.8763V13.6563H35.3068V15.2763H35.2468C34.3168 13.9863 32.9068 13.2363 30.9868 13.2363C27.0868 13.2363 24.3268 16.1763 24.3268 20.7663C24.3268 25.4163 27.6868 28.1163 31.1068 28.1163C33.0568 28.1163 34.2268 27.3363 35.1268 26.3163H35.2168V27.9963C35.2168 30.0963 34.1068 31.2063 31.7968 31.2063C29.9068 31.2063 29.0368 30.4563 28.7068 29.4963H24.6568C25.0768 32.4963 27.6568 34.2963 31.8568 34.2963ZM31.7968 24.8463C29.6968 24.8463 28.3168 23.3163 28.3168 20.7063C28.3168 18.1263 29.6968 16.5063 31.7668 16.5063C34.2268 16.5063 35.4268 18.4263 35.4268 20.6763C35.4268 22.9563 34.3768 24.8463 31.7968 24.8463Z" fill="white"/>
<path d="M49.1539 29.4963C53.924 29.4963 57.194 25.9563 57.194 21.3663C57.194 16.7763 53.924 13.2363 49.1539 13.2363C44.3839 13.2363 41.114 16.7763 41.114 21.3663C41.114 25.9563 44.3839 29.4963 49.1539 29.4963ZM49.1539 26.3763C46.6339 26.3763 45.254 24.3663 45.254 21.3663C45.254 18.3663 46.6339 16.3263 49.1539 16.3263C51.6439 16.3263 53.054 18.3663 53.054 21.3663C53.054 24.3663 51.6439 26.3763 49.1539 26.3763Z" fill="white"/>
<path d="M181.104 10.2963C181.104 9.6059 181.663 9.04626 182.354 9.04626H184.854C185.544 9.04626 186.104 9.6059 186.104 10.2963C186.104 10.9866 185.544 11.5463 184.854 11.5463H182.354C181.663 11.5463 181.104 10.9866 181.104 10.2963Z" fill="white"/>
</g>
<defs>
<clipPath id="clip0_1_111">
<rect width="186" height="41" fill="white" transform="translate(0.400024 0.5)"/>
</clipPath>
</defs>
</svg>
